<svg xmlns="http://www.w3.org/2000/svg" id="Capa_1" width="1919.53" height="629.299" data-name="Capa 1" style="max-height:500px" viewBox="511.711 26.935 1919.53 629.299"><defs><clipPath id="clip-path" transform="translate(510.22 27.04)"><path d="M1.24 135.69s956.69-303.07 1918.76 0V627.5H0Z" style="fill:none"/></clipPath><style>.cls-4{opacity:.2}.cls-5{fill:#fff}</style></defs><path d="M1.24 137.19s956.69-303.07 1918.76 0V629H0Z" style="fill:#8341a2" transform="translate(510.22 27.04)"/><g class="cls-4" style="clip-path:url(#clip-path)"><g class="cls-4"><g id="huellas"><path d="M436.63 453.11a26.43 26.43 0 0 1 3.59-10.07c10.09-16.19 31.29-15.8 42.32-1.18a27.11 27.11 0 0 1 5.5 13.5c.51 5.07-.82 10.54-4 13.92s-8.15 4.19-11.63 1.33a15.68 15.68 0 0 1-3.7-4.49c-.94-1.75-1.89-3.57-3.83-4.38a6.13 6.13 0 0 0-2.65-.42 7.37 7.37 0 0 0-6.48 4.06c-1.06 2.07-2.18 4.42-4.45 5.4a7.49 7.49 0 0 1-4.86.21c-8.35-2.12-10.93-10.05-9.81-17.88ZM448.32 411.69c-7.1 2.64-8.58 13-1 16.12a8.8 8.8 0 0 0 9.53-2.14 8.79 8.79 0 0 0 1.37-9.63c-1.75-3.44-6.2-5.72-9.9-4.35ZM470.91 411.69c-7.1 2.64-8.59 13-1 16.12a8.8 8.8 0 0 0 9.53-2.14 8.79 8.79 0 0 0 1.33-9.63c-1.72-3.44-6.16-5.72-9.86-4.35ZM489.63 426.33c-5.95 1.31-7.71 9.26-3.31 13.35a8.45 8.45 0 0 0 11.9-.92c5-6.34-1.39-14.02-8.59-12.43ZM430.34 426.33c-5.94 1.31-7.71 9.26-3.31 13.35a8.45 8.45 0 0 0 11.89-.92c4.98-6.34-1.38-14.02-8.58-12.43ZM28.71 381.32a26.63 26.63 0 0 1 .79-10.65c5.36-18.31 25.88-23.64 40.44-12.53a27.17 27.17 0 0 1 8.94 11.53c1.85 4.75 2 10.37-.09 14.47s-6.72 6.23-10.83 4.42a16 16 0 0 1-4.79-3.34c-1.37-1.43-2.77-2.93-4.86-3.19a6.18 6.18 0 0 0-2.66.32A7.37 7.37 0 0 0 50.5 388c-.47 2.28-.92 4.84-2.83 6.4a7.53 7.53 0 0 1-4.62 1.51c-8.68.19-13.31-6.75-14.34-14.59ZM28.83 338.27c-6.13 4.45-4.76 14.88 3.37 15.8a8.79 8.79 0 0 0 8.6-4.63 8.81 8.81 0 0 0-1.32-9.68c-2.56-2.8-7.46-3.8-10.65-1.49ZM50.59 332.2c-6.13 4.45-4.76 14.87 3.36 15.79a8.79 8.79 0 0 0 8.6-4.63 8.77 8.77 0 0 0-1.31-9.67c-2.57-2.81-7.46-3.81-10.65-1.49ZM72.55 341.26c-5.37 2.86-4.93 11 .41 13.75a8.44 8.44 0 0 0 11.2-4.09c3.06-7.44-5.1-13.13-11.61-9.66ZM15.45 357.21c-5.37 2.87-4.93 11 .41 13.75a8.44 8.44 0 0 0 11.2-4.09c3.09-7.44-5.1-13.13-11.61-9.66ZM187.22 563.58a26.41 26.41 0 0 1 6.19-8.7c14.07-12.87 34.38-6.8 41.08 10.25a27.2 27.2 0 0 1 1.73 14.49c-.88 5-3.63 9.93-7.57 12.33s-9 1.85-11.56-1.84a15.77 15.77 0 0 1-2.36-5.32c-.43-1.94-.85-4-2.5-5.25a6.13 6.13 0 0 0-2.45-1.11 7.34 7.34 0 0 0-7.32 2.16c-1.59 1.71-3.3 3.67-5.74 4a7.48 7.48 0 0 1-4.74-1.1c-7.55-4.33-7.91-12.67-4.76-19.91ZM209.67 526.84c-7.55.62-11.78 10.25-5.31 15.25a8.81 8.81 0 0 0 9.75.5 8.78 8.78 0 0 0 3.89-9c-.78-3.69-4.41-7.08-8.33-6.75ZM231.42 532.91c-7.55.63-11.78 10.26-5.31 15.25a8.81 8.81 0 0 0 9.76.51 8.82 8.82 0 0 0 3.89-9c-.74-3.69-4.41-7.08-8.34-6.76ZM245.51 552.04c-6.08-.34-9.92 6.84-6.78 12a8.44 8.44 0 0 0 11.7 2.31c6.5-4.78 2.44-13.9-4.92-14.31ZM188.41 536.09c-6.08-.33-9.92 6.85-6.78 12a8.44 8.44 0 0 0 11.7 2.31c6.5-4.79 2.44-13.9-4.92-14.31ZM956.07 400.44a26.42 26.42 0 0 1 3.62-10c10.09-16.19 31.29-15.8 42.32-1.18a27.21 27.21 0 0 1 5.51 13.51c.5 5.07-.83 10.53-4 13.91s-8.15 4.19-11.62 1.34a15.59 15.59 0 0 1-3.71-4.5c-.94-1.75-1.88-3.57-3.83-4.38a6.13 6.13 0 0 0-2.65-.41 7.39 7.39 0 0 0-6.48 4.05c-1.06 2.08-2.18 4.42-4.45 5.4a7.47 7.47 0 0 1-4.85.22c-8.4-2.2-10.98-10.14-9.86-17.96ZM967.77 359.04c-7.11 2.64-8.59 13-1 16.12a8.57 8.57 0 0 0 10.86-11.82c-1.72-3.41-6.17-5.7-9.86-4.3ZM990.35 359.04c-7.1 2.64-8.58 13-1 16.12a8.57 8.57 0 0 0 10.87-11.85c-1.73-3.38-6.17-5.67-9.87-4.27ZM1009.07 373.65c-5.94 1.32-7.71 9.26-3.31 13.35a8.44 8.44 0 0 0 11.89-.92c4.98-6.33-1.38-14.04-8.58-12.43ZM949.78 373.65c-5.94 1.32-7.71 9.26-3.31 13.35a8.44 8.44 0 0 0 11.89-.92c4.98-6.33-1.38-14.04-8.58-12.43ZM636.22 364.19a26.42 26.42 0 0 1 7.18-7.9c15.5-11.12 34.95-2.67 39.57 15.06a27.15 27.15 0 0 1-.07 14.58c-1.47 4.88-4.79 9.42-9 11.34s-9.14.77-11.26-3.2a15.68 15.68 0 0 1-1.71-5.57c-.2-2-.38-4-1.86-5.51a6.23 6.23 0 0 0-2.3-1.39 7.36 7.36 0 0 0-7.53 1.27c-1.78 1.51-3.71 3.26-6.18 3.3a7.45 7.45 0 0 1-4.57-1.66c-6.96-5.2-6.33-13.47-2.27-20.32ZM662.81 330.36c-7.57-.27-12.92 8.78-7.09 14.52a8.58 8.58 0 0 0 14.56-6.78c-.3-3.79-3.53-7.59-7.47-7.74ZM683.69 338.98c-7.58-.27-12.92 8.78-7.09 14.52a8.58 8.58 0 0 0 14.56-6.78c-.3-3.79-3.54-7.59-7.47-7.74ZM695.4 359.66c-6-1.06-10.66 5.61-8.16 11.08a8.45 8.45 0 0 0 11.35 3.68c7.02-3.95 4.07-13.49-3.19-14.76ZM640.6 337.04c-6-1.05-10.66 5.61-8.16 11.08a8.45 8.45 0 0 0 11.35 3.68c7.01-3.96 4.07-13.49-3.19-14.76ZM809.43 579.86a26.38 26.38 0 0 1-.49-10.67c3.12-18.81 22.85-26.57 38.64-17.28a27 27 0 0 1 10.25 10.37c2.41 4.49 3.27 10 1.66 14.37s-5.93 7-10.23 5.69a15.88 15.88 0 0 1-5.15-2.74c-1.53-1.26-3.1-2.57-5.21-2.58a6.18 6.18 0 0 0-2.6.63 7.39 7.39 0 0 0-4.44 6.23c-.19 2.32-.32 4.92-2 6.69a7.53 7.53 0 0 1-4.41 2.06c-8.63 1.23-14.06-5.11-16.02-12.77ZM804.39 537.11c-5.56 5.16-2.95 15.34 5.23 15.28a8.57 8.57 0 0 0 5.52-15.08c-2.92-2.47-7.87-2.88-10.75-.2ZM825.22 528.47c-5.55 5.15-2.94 15.34 5.24 15.28a8.58 8.58 0 0 0 5.52-15.08c-2.86-2.47-7.84-2.88-10.76-.2ZM848.15 534.83c-5 3.49-3.58 11.5 2.05 13.6a8.44 8.44 0 0 0 10.63-5.4c2.18-7.76-6.61-12.42-12.68-8.2ZM793.37 557.52c-5 3.49-3.58 11.5 2.06 13.6a8.44 8.44 0 0 0 10.63-5.4c2.16-7.76-6.65-12.42-12.69-8.2ZM424.93 219.48a26.24 26.24 0 0 1 .13-10.67c4.2-18.61 24.35-25.21 39.58-15a27.14 27.14 0 0 1 9.63 10.94c2.14 4.63 2.68 10.23.82 14.45s-6.32 6.64-10.54 5.08a15.76 15.76 0 0 1-5-3c-1.46-1.35-3-2.76-5.05-2.88a6 6 0 0 0-2.64.48 7.33 7.33 0 0 0-4.79 5.95c-.33 2.31-.61 4.9-2.43 6.57a7.48 7.48 0 0 1-4.52 1.8c-8.63.69-13.68-5.96-15.19-13.72ZM422.37 176.52c-5.84 4.82-3.83 15.14 4.34 15.55a8.79 8.79 0 0 0 8.3-5.15 8.78 8.78 0 0 0-1.92-9.58c-2.73-2.64-7.68-3.3-10.72-.82ZM443.7 169.1c-5.84 4.82-3.82 15.14 4.34 15.55a8.79 8.79 0 0 0 8.3-5.15 8.8 8.8 0 0 0-1.91-9.58c-2.74-2.64-7.69-3.33-10.73-.82ZM466.22 176.77c-5.18 3.2-4.24 11.28 1.26 13.7a8.44 8.44 0 0 0 10.93-4.78c2.59-7.65-5.94-12.78-12.19-8.92ZM410.22 196.25c-5.18 3.2-4.24 11.28 1.26 13.7a8.45 8.45 0 0 0 10.93-4.78c2.59-7.62-5.94-12.79-12.19-8.92ZM22.47 57.45a26.31 26.31 0 0 1 8-7c16.64-9.33 35 1.24 37.65 19.37a27.14 27.14 0 0 1-1.7 14.48c-2 4.69-5.8 8.83-10.18 10.27s-9.17-.25-10.84-4.43a15.84 15.84 0 0 1-1.08-5.73c0-2 .07-4-1.24-5.68a6.21 6.21 0 0 0-2.1-1.69 7.37 7.37 0 0 0-7.63.43c-1.93 1.3-4.05 2.82-6.5 2.59a7.47 7.47 0 0 1-4.36-2.16c-6.33-5.94-4.77-14.14-.02-20.45ZM52.69 26.8c-7.47-1.12-13.81 7.24-8.65 13.63a8.8 8.8 0 0 0 9.38 2.72 8.8 8.8 0 0 0 5.8-7.83c.17-3.8-2.63-7.94-6.53-8.52ZM72.48 37.69c-7.49-1.12-13.81 7.29-8.65 13.63a8.77 8.77 0 0 0 9.39 2.72 8.78 8.78 0 0 0 5.83-7.83c.17-3.8-2.67-7.94-6.57-8.52ZM81.82 59.54c-5.84-1.72-11.22 4.39-9.34 10.1a8.44 8.44 0 0 0 10.86 4.92c7.42-3.14 5.55-12.94-1.52-15.02ZM29.88 30.95c-5.84-1.71-11.22 4.39-9.34 10.1a8.44 8.44 0 0 0 10.86 4.92c7.42-3.14 5.55-12.93-1.52-15.02ZM187.22 259.62a26.36 26.36 0 0 1 6.3-8.62c14.23-12.7 34.47-6.37 40.95 10.76a27.27 27.27 0 0 1 1.48 14.51c-1 5-3.76 9.88-7.73 12.24s-9 1.73-11.53-2a15.75 15.75 0 0 1-2.3-5.36c-.4-1.94-.8-4-2.43-5.28a6.46 6.46 0 0 0-2.43-1.14 7.39 7.39 0 0 0-7.36 2.07c-1.61 1.69-3.34 3.63-5.79 3.93a7.45 7.45 0 0 1-4.72-1.16c-7.44-4.42-7.73-12.76-4.44-19.95ZM210.08 223.15c-7.56.54-11.91 10.11-5.5 15.19a8.8 8.8 0 0 0 9.75.62 8.81 8.81 0 0 0 4-8.91c-.69-3.73-4.32-7.17-8.25-6.9ZM231.76 229.51c-7.56.53-11.91 10.1-5.5 15.18a8.78 8.78 0 0 0 9.74.62 8.79 8.79 0 0 0 4-8.91c-.69-3.73-4.31-7.17-8.24-6.89ZM245.6 248.82c-6.07-.41-10 6.71-6.93 11.88a8.44 8.44 0 0 0 11.67 2.45c6.56-4.67 2.62-13.84-4.74-14.33ZM188.71 232.14c-6.08-.41-10 6.72-6.93 11.89a8.43 8.43 0 0 0 11.66 2.45c6.56-4.67 2.62-13.84-4.73-14.34ZM321.09 36.48a26.38 26.38 0 0 1 6.31-8.62c14.22-12.7 34.46-6.37 40.94 10.76a27.08 27.08 0 0 1 1.48 14.51c-.94 5-3.76 9.88-7.72 12.24s-9 1.73-11.54-2a15.73 15.73 0 0 1-2.29-5.33c-.41-1.94-.8-3.95-2.44-5.28a6.32 6.32 0 0 0-2.43-1.14 7.37 7.37 0 0 0-7.35 2.07c-1.61 1.69-3.35 3.63-5.79 3.93a7.46 7.46 0 0 1-4.73-1.16c-7.46-4.42-7.72-12.79-4.44-19.98ZM343.96.04c-7.55.54-11.9 10.11-5.5 15.19a8.8 8.8 0 0 0 9.75.62 8.8 8.8 0 0 0 4-8.91c-.69-3.76-4.31-7.2-8.25-6.9ZM365.64 6.37c-7.56.53-11.91 10.1-5.5 15.18a8.8 8.8 0 0 0 9.75.62 8.8 8.8 0 0 0 4-8.91c-.67-3.73-4.32-7.17-8.25-6.89ZM379.49 25.68c-6.08-.41-10 6.71-6.93 11.88a8.43 8.43 0 0 0 11.66 2.48c6.56-4.7 2.62-13.87-4.73-14.36ZM322.59 9.04c-6.07-.41-10 6.72-6.93 11.89a8.44 8.44 0 0 0 11.67 2.41c6.56-4.67 2.61-13.84-4.74-14.3ZM966.65 80.78a26.35 26.35 0 0 1-.83-10.64c2.51-18.91 22-27.29 38.07-18.52a27.2 27.2 0 0 1 10.58 10c2.55 4.41 3.59 9.94 2.11 14.31s-5.7 7.18-10 6a15.83 15.83 0 0 1-5.23-2.56c-1.58-1.21-3.19-2.48-5.29-2.42a6.25 6.25 0 0 0-2.59.72 7.37 7.37 0 0 0-4.25 6.37c-.12 2.33-.17 4.93-1.83 6.75a7.46 7.46 0 0 1-4.34 2.2c-8.57 1.55-14.19-4.62-16.4-12.21ZM960.22 38.22c-5.38 5.33-2.45 15.42 5.72 15.1a8.8 8.8 0 0 0 7.8-5.88 8.77 8.77 0 0 0-2.74-9.4c-2.96-2.34-7.96-2.59-10.78.18ZM980.82 28.91c-5.38 5.33-2.45 15.42 5.72 15.1a8.79 8.79 0 0 0 7.81-5.88 8.8 8.8 0 0 0-2.77-9.36c-2.96-2.38-7.96-2.63-10.76.14ZM1003.91 34.54c-4.88 3.64-3.21 11.61 2.48 13.53a8.46 8.46 0 0 0 10.46-5.75c1.92-7.82-7.04-12.2-12.94-7.78ZM949.89 58.97c-4.88 3.64-3.21 11.61 2.48 13.53a8.46 8.46 0 0 0 10.46-5.74c1.92-7.83-7.04-12.21-12.94-7.79ZM1161.74 258.04a26.37 26.37 0 0 1 8.36-6.65c17.09-8.48 34.92 3 36.64 21.22a27.22 27.22 0 0 1-2.41 14.38c-2.24 4.58-6.24 8.54-10.69 9.76s-9.14-.72-10.6-5a15.75 15.75 0 0 1-.79-5.77c.12-2 .27-4-1-5.74a6.13 6.13 0 0 0-2-1.74 7.38 7.38 0 0 0-7.64 0c-2 1.21-4.18 2.62-6.62 2.27a7.55 7.55 0 0 1-4.25-2.37c-6.03-6.23-4.06-14.36 1-20.36ZM1193.45 228.88c-7.43-1.49-14.16 6.59-9.32 13.18a8.57 8.57 0 0 0 15.45-4.35c.32-3.78-2.27-8.06-6.13-8.83ZM1212.67 240.74c-7.43-1.49-14.15 6.59-9.32 13.18a8.57 8.57 0 0 0 15.45-4.34c.32-3.79-2.26-8.07-6.13-8.84ZM1220.91 263.04c-5.75-2-11.42 3.83-9.82 9.62a8.44 8.44 0 0 0 10.6 5.46c7.53-2.79 6.18-12.67-.78-15.08ZM1170.46 231.89c-5.75-2-11.42 3.83-9.83 9.62a8.44 8.44 0 0 0 10.6 5.46c7.57-2.77 6.19-12.65-.77-15.08ZM638.55 71.21a26.45 26.45 0 0 1 3.63-10c10.04-16.23 31.28-15.84 42.32-1.17a27.2 27.2 0 0 1 5.5 13.5c.5 5.07-.83 10.54-4 13.92s-8.16 4.19-11.63 1.33a15.71 15.71 0 0 1-3.71-4.49c-.94-1.75-1.88-3.57-3.82-4.38a6.19 6.19 0 0 0-2.66-.41 7.34 7.34 0 0 0-6.47 4c-1.07 2.07-2.19 4.42-4.45 5.4a7.5 7.5 0 0 1-4.86.22c-8.38-2.16-10.97-10.09-9.85-17.92ZM650.22 29.79c-7.1 2.64-8.59 13-1 16.12a8.8 8.8 0 0 0 9.53-2.14 8.82 8.82 0 0 0 1.34-9.68c-1.7-3.39-6.15-5.67-9.87-4.3ZM672.84 29.79c-7.11 2.64-8.59 13-1 16.12a8.8 8.8 0 0 0 9.53-2.14 8.8 8.8 0 0 0 1.33-9.68c-1.72-3.39-6.17-5.67-9.86-4.3ZM691.55 44.43c-5.94 1.31-7.71 9.26-3.31 13.35a8.45 8.45 0 0 0 11.89-.92c4.98-6.34-1.38-14.02-8.58-12.43ZM632.22 44.43c-5.94 1.31-7.7 9.26-3.31 13.35a8.45 8.45 0 0 0 11.89-.92c5.02-6.34-1.34-14.02-8.58-12.43ZM803.16 267.28a26.45 26.45 0 0 1 3.63-10c10.08-16.19 31.28-15.8 42.32-1.18a27.2 27.2 0 0 1 5.5 13.5c.5 5.08-.83 10.54-4 13.92s-8.16 4.19-11.63 1.33a15.88 15.88 0 0 1-3.71-4.49c-.94-1.75-1.88-3.57-3.82-4.38a6.17 6.17 0 0 0-2.66-.41 7.34 7.34 0 0 0-6.47 4c-1.07 2.07-2.19 4.42-4.45 5.4a7.5 7.5 0 0 1-4.86.22c-8.38-2.15-10.97-10.08-9.85-17.91ZM814.86 225.86c-7.1 2.64-8.59 13.05-1 16.12a8.57 8.57 0 0 0 10.87-11.82c-1.73-3.39-6.18-5.67-9.87-4.3ZM837.45 225.86c-7.11 2.64-8.59 13.05-1 16.12a8.57 8.57 0 0 0 10.86-11.82c-1.72-3.39-6.17-5.67-9.86-4.3ZM856.16 240.5c-5.94 1.31-7.71 9.26-3.31 13.35a8.45 8.45 0 0 0 11.89-.92c4.98-6.33-1.38-14.02-8.58-12.43ZM796.88 240.5c-6 1.31-7.71 9.26-3.31 13.35a8.45 8.45 0 0 0 11.89-.92c4.97-6.33-1.39-14.02-8.58-12.43ZM373.22 708.04a26.34 26.34 0 0 1 2.28-10.43c7.88-17.37 28.94-19.77 41.8-6.72a27.16 27.16 0 0 1 7.23 12.66c1.16 5 .56 10.56-2.12 14.32s-7.53 5.23-11.35 2.85a16 16 0 0 1-4.26-4c-1.16-1.61-2.34-3.29-4.37-3.84a6.06 6.06 0 0 0-2.68-.06 7.33 7.33 0 0 0-5.89 4.86c-.79 2.2-1.59 4.68-3.71 5.94a7.42 7.42 0 0 1-4.78.85c-8.64-.99-12.24-8.51-12.15-16.43ZM379.38 665.45c-6.7 3.55-6.8 14.06 1.11 16.11a8.79 8.79 0 0 0 9.17-3.37 8.81 8.81 0 0 0 .06-9.77c-2.15-3.13-6.86-4.81-10.34-2.97ZM401.77 662.49c-6.69 3.55-6.8 14.06 1.11 16.11a8.8 8.8 0 0 0 9.17-3.37 8.8 8.8 0 0 0 .06-9.77c-2.15-3.13-6.89-4.81-10.34-2.97ZM422.22 674.55c-5.72 2.08-6.43 10.19-1.53 13.67a8.43 8.43 0 0 0 11.66-2.48c4.14-6.93-3.13-13.7-10.13-11.19ZM363.47 682.32c-5.72 2.08-6.43 10.19-1.53 13.67a8.45 8.45 0 0 0 11.67-2.47c4.1-6.93-3.21-13.72-10.14-11.2ZM419.31 896.81a26.38 26.38 0 0 1 2.27-10.44c7.88-17.37 28.94-19.76 41.8-6.72a27.24 27.24 0 0 1 7.23 12.67c1.16 5 .56 10.56-2.12 14.31s-7.53 5.23-11.35 2.85a15.77 15.77 0 0 1-4.26-4c-1.16-1.62-2.34-3.3-4.37-3.85a6.21 6.21 0 0 0-2.68-.06 7.37 7.37 0 0 0-5.89 4.87c-.79 2.19-1.59 4.67-3.71 5.94a7.49 7.49 0 0 1-4.78.85c-8.62-.99-12.23-8.52-12.14-16.42ZM425.47 854.21c-6.69 3.54-6.8 14.05 1.11 16.11a8.8 8.8 0 0 0 9.17-3.37 8.81 8.81 0 0 0 .06-9.77c-2.15-3.14-6.86-4.82-10.34-2.97ZM447.86 851.25c-6.69 3.54-6.8 14 1.12 16.11a8.78 8.78 0 0 0 9.16-3.38 8.78 8.78 0 0 0 .06-9.76c-2.15-3.18-6.85-4.82-10.34-2.97ZM468.34 863.3c-5.72 2.09-6.43 10.19-1.53 13.67a8.44 8.44 0 0 0 11.66-2.47c4.11-6.93-3.2-13.72-10.13-11.2ZM409.56 871.04c-5.72 2.08-6.43 10.18-1.53 13.67a8.45 8.45 0 0 0 11.67-2.48c4.1-6.89-3.21-13.67-10.14-11.19ZM29.49 683.65a26.39 26.39 0 0 1 .34-10.67c4.56-18.52 24.84-24.73 39.86-14.25a27.18 27.18 0 0 1 9.42 11.13c2.05 4.67 2.48 10.28.54 14.47s-6.45 6.51-10.64 4.87a15.83 15.83 0 0 1-4.92-3.12c-1.43-1.38-2.89-2.81-5-3a6.16 6.16 0 0 0-2.65.43 7.35 7.35 0 0 0-4.9 5.86c-.38 2.3-.71 4.88-2.56 6.52a7.54 7.54 0 0 1-4.55 1.71c-8.66.58-13.58-6.16-14.94-13.95ZM27.77 640.64c-5.93 4.71-4.12 15.07 4 15.64a8.81 8.81 0 0 0 8.4-5 8.84 8.84 0 0 0-1.73-9.62c-2.65-2.68-7.58-3.47-10.67-1.02ZM49.22 633.64c-5.94 4.71-4.12 15.06 4 15.63a8.77 8.77 0 0 0 8.4-5 8.78 8.78 0 0 0-1.73-9.61c-2.62-2.68-7.56-3.47-10.67-1.02ZM71.58 641.75c-5.24 3.09-4.46 11.19 1 13.72a8.45 8.45 0 0 0 11-4.56c2.78-7.57-5.65-12.87-12-9.16ZM15.22 660.13c-5.24 3.1-4.46 11.2 1 13.72a8.43 8.43 0 0 0 11-4.56c2.77-7.56-5.66-12.9-12-9.16ZM186.99 862.04a26.32 26.32 0 0 1 7.1-8c15.37-11.29 34.91-3.07 39.73 14.61a27.21 27.21 0 0 1 .1 14.58c-1.42 4.89-4.68 9.48-8.85 11.44s-9.13.87-11.3-3.07a15.62 15.62 0 0 1-1.77-5.55c-.22-2-.43-4-1.93-5.49a6.07 6.07 0 0 0-2.31-1.36 7.36 7.36 0 0 0-7.54 1.34c-1.76 1.52-3.67 3.29-6.13 3.36a7.48 7.48 0 0 1-4.59-1.6c-7-5.12-6.46-13.45-2.51-20.26ZM213.22 827.88c-7.57-.19-12.81 8.92-6.92 14.59a8.8 8.8 0 0 0 9.65 1.54 8.78 8.78 0 0 0 4.83-8.48c-.33-3.79-3.62-7.56-7.56-7.65ZM234.22 836.26c-7.58-.19-12.82 8.92-6.92 14.59a8.81 8.81 0 0 0 9.64 1.55 8.81 8.81 0 0 0 4.84-8.49c-.36-3.79-3.64-7.55-7.56-7.65ZM246.15 856.8c-6-1-10.6 5.73-8 11.17a8.44 8.44 0 0 0 11.38 3.55c6.94-4.03 3.89-13.48-3.38-14.72ZM191.09 834.79c-6-1-10.59 5.74-8 11.17a8.46 8.46 0 0 0 11.39 3.56c6.94-4.03 3.89-13.48-3.39-14.73ZM1163.7 798.79a26.35 26.35 0 0 1-.19-10.68c3.64-18.72 23.59-25.92 39.11-16.19a27.17 27.17 0 0 1 10 10.65c2.28 4.56 3 10.14 1.25 14.42s-6.12 6.82-10.39 5.39a15.87 15.87 0 0 1-5.06-2.87c-1.51-1.31-3-2.67-5.14-2.73a6.08 6.08 0 0 0-2.62.56 7.35 7.35 0 0 0-4.61 6.09c-.26 2.32-.46 4.92-2.23 6.64a7.44 7.44 0 0 1-4.5 1.97c-8.63 1-13.87-5.54-15.62-13.25ZM1159.86 755.92c-5.7 5-3.37 15.25 4.8 15.42a8.58 8.58 0 0 0 5.94-14.92c-2.81-2.55-7.78-3.1-10.74-.5ZM1180.96 747.86c-5.7 5-3.37 15.25 4.8 15.42a8.57 8.57 0 0 0 5.94-14.91c-2.81-2.56-7.78-3.1-10.74-.51ZM1203.66 754.86c-5.08 3.35-3.9 11.4 1.67 13.66a8.45 8.45 0 0 0 10.78-5.11c2.39-7.69-6.29-12.6-12.45-8.55ZM1148.28 776.04c-5.09 3.35-3.9 11.4 1.67 13.65a8.42 8.42 0 0 0 10.77-5.1c2.4-7.72-6.29-12.63-12.44-8.55ZM917.88 719.78a26.35 26.35 0 0 1-.19-10.68c3.64-18.72 23.59-25.92 39.11-16.2a27.2 27.2 0 0 1 10 10.66c2.28 4.56 3 10.14 1.25 14.41s-6.12 6.83-10.39 5.4a15.71 15.71 0 0 1-5.06-2.88c-1.51-1.3-3-2.66-5.14-2.73a6.23 6.23 0 0 0-2.62.56 7.38 7.38 0 0 0-4.61 6.1c-.26 2.32-.46 4.91-2.23 6.63a7.46 7.46 0 0 1-4.46 1.94c-8.67.99-13.91-5.5-15.66-13.21ZM914.04 676.91c-5.7 5-3.37 15.25 4.8 15.41a8.57 8.57 0 0 0 5.94-14.91c-2.81-2.55-7.78-3.1-10.74-.5ZM935.14 668.85c-5.7 5-3.37 15.25 4.8 15.42a8.58 8.58 0 0 0 5.94-14.92c-2.81-2.55-7.78-3.1-10.74-.5ZM957.84 675.85c-5.08 3.35-3.9 11.4 1.67 13.65a8.43 8.43 0 0 0 10.78-5.1c2.39-7.69-6.29-12.6-12.45-8.55ZM902.46 697.04c-5.09 3.34-3.9 11.39 1.67 13.65a8.43 8.43 0 0 0 10.77-5.1c2.4-7.73-6.29-12.65-12.44-8.55ZM967.38 865.93a26.43 26.43 0 0 1 8.71-6.18c17.51-7.56 34.71 4.84 35.44 23.15a27.14 27.14 0 0 1-3.17 14.23c-2.48 4.45-6.69 8.19-11.2 9.17s-9.09-1.2-10.31-5.53a15.84 15.84 0 0 1-.49-5.81c.23-2 .49-4-.65-5.78a6.13 6.13 0 0 0-1.94-1.85 7.36 7.36 0 0 0-7.63-.36c-2.06 1.1-4.32 2.39-6.74 1.91a7.58 7.58 0 0 1-4.11-2.6c-5.68-6.56-3.29-14.55 2.09-20.35ZM1000.6 838.57c-7.34-1.89-14.49 5.82-10 12.66a8.56 8.56 0 0 0 15.62-3.51c.55-3.77-1.8-8.18-5.62-9.15ZM1019.16 851.44c-7.34-1.88-14.49 5.82-10 12.67a8.57 8.57 0 0 0 15.66-3.52c.51-3.76-1.84-8.17-5.66-9.15ZM1026.22 874.13c-5.63-2.3-11.61 3.22-10.33 9.09a8.45 8.45 0 0 0 10.3 6c7.68-2.35 6.83-12.29.03-15.09ZM977.48 840.34c-5.63-2.3-11.61 3.22-10.33 9.09a8.44 8.44 0 0 0 10.3 6c7.7-2.39 6.85-12.29.03-15.09ZM636.78 670.73a26.27 26.27 0 0 1 5.62-9.09c13.2-13.76 33.86-9 41.65 7.57a27.19 27.19 0 0 1 2.6 14.34c-.55 5.07-3 10.15-6.75 12.8s-8.84 2.43-11.66-1.08a16 16 0 0 1-2.7-5.17c-.56-1.91-1.1-3.88-2.84-5.07a6.09 6.09 0 0 0-2.51-1 7.34 7.34 0 0 0-7.17 2.63c-1.47 1.81-3.05 3.88-5.47 4.37a7.49 7.49 0 0 1-4.8-.79c-7.78-3.79-8.68-12.09-5.97-19.51ZM656.76 632.6c-7.5 1.12-11.09 11-4.31 15.57a8.58 8.58 0 0 0 13.07-9.33c-.99-3.67-4.87-6.8-8.76-6.24ZM678.86 637.26c-7.49 1.11-11.09 11-4.31 15.56a8.57 8.57 0 0 0 13.07-9.33c-.98-3.67-4.86-6.82-8.76-6.23ZM694.16 655.43c-6.09.07-9.45 7.48-6 12.39a8.45 8.45 0 0 0 11.83 1.54c6.23-5.17 1.54-14-5.83-13.93ZM636.14 643.22c-6.08.06-9.45 7.47-6 12.39a8.45 8.45 0 0 0 11.83 1.54c6.18-5.17 1.54-14-5.83-13.93ZM760.64 886.62a26.22 26.22 0 0 1-4.72-9.58c-4.7-18.48 10.3-33.5 28.47-31.32a27.07 27.07 0 0 1 13.54 5.39c4 3.15 7 7.9 7.29 12.5s-2.63 8.79-7.1 9.31a15.8 15.8 0 0 1-5.81-.44c-1.91-.54-3.87-1.11-5.81-.28a6.16 6.16 0 0 0-2.13 1.63 7.38 7.38 0 0 0-1.57 7.48c.76 2.21 1.68 4.64.82 7a7.48 7.48 0 0 1-3.22 3.65c-7.38 4.53-14.89.9-19.76-5.34ZM738.88 849.49c-3 6.95 3.46 15.23 10.92 11.89a8.57 8.57 0 0 0-1-16c-3.58-1.13-8.35.49-9.92 4.11ZM754.53 833.2c-3 7 3.46 15.23 10.92 11.9a8.58 8.58 0 0 0-1-16c-3.62-1.14-8.35.49-9.92 4.1ZM778.06 829.85c-3.17 5.2 1.33 12 7.33 11.64a8.44 8.44 0 0 0 7.57-9.22c-1.11-7.97-11.06-8.71-14.9-2.42ZM736.98 872.6c-3.17 5.19 1.33 12 7.33 11.64a8.44 8.44 0 0 0 7.57-9.22c-1.11-7.98-11.06-8.71-14.9-2.42Z" class="cls-5"/></g><g id="huesos"><g id="hueso"><path d="M325.29 361.1c-4 3.49-5.38 9-3.78 14.65a9.76 9.76 0 0 0 11.2 7.44c7.86-.1 11.42-7.33 15.4-13.61 3-5.17 7.6-8.83 12.88-11.46 6.83-3.39 13.76-6.48 20.74-9.58 3.07-1.36 6.2-2.57 9.21-4 5.66-2.67 11.72-5.16 18.08-5 6.66.13 12.89 5.36 19.16 1.13 9.12-6.16 4.4-19.66-5.79-19.92" class="cls-5"/><path d="M419.96 323.04a14.55 14.55 0 0 0 4.53-7.66c.84-8.28-4.92-13.62-12.25-14.88-8.27-.84-11 8.27-15 14.55-2.21 3.48-5.43 7.3-9.23 9l-7.22 3.2-20.6 9.15-13.26 5.89a24.72 24.72 0 0 1-5.52 2c-4.75.92-9.06.06-13.6-1.28-3.94-1.17-7.93-1.81-11.49.76-9 6.48-3.62 20 6.86 19.68" class="cls-5"/></g><path d="m740.96 188.07-3.24 1.8-4.21.67-4.39-.67-3.12-2.45-2.21-2.96-.93-3.22.23-3.75 1.61-3.8 3.75-3.43 5.22-2.68 4.1-2.71 2.96-3.15 2.84-4.24 2.41-4.81 13.34-31.78 2.11-6.17 1-6.25-.47-6.5-1.22-6.27-.54-4.51.54-5.31 3.07-4.99 3.57-3.14 5.58-.99 5.14 2.83 3.67 3.32 1.84 3.42.62 2.49 3.12-2.2 3.66-.97 4.11.54 4.63 2.57 3.1 4.93-.53 7.1-5.13 4.83-5.52 2.99-4.93 3.56-3.5 4.4-3 6.96-15.06 35.4-2.53 7.16.09 6.37 1.52 7.18 1.32 6.36-.39 5.35-3.63 4.59-4.42 1.94-5.05.49-4.09-.86-3.87-3.05-2.35-3.88-.82-2.51z" class="cls-5"/><g id="hueso-2" data-name="hueso"><path d="M1036.58 139.5c-5.29.32-9.75 3.84-11.93 9.29a9.74 9.74 0 0 0 4.33 12.73c6.28 4.72 13.52 1.17 20.51-1.38 5.51-2.27 11.4-2.36 17.19-1.21 7.48 1.47 14.86 3.26 22.28 5.06 3.26.8 6.48 1.75 9.73 2.47 6.1 1.34 12.43 3.07 17.39 7.05 5.2 4.15 6.95 12.1 14.5 12.58 11 .69 15.47-12.89 7.56-19.31" class="cls-5"/><path d="M1134.82 167.11a14.46 14.46 0 0 0 8.26-3.31c5.72-6 4.42-13.79-.62-19.26-6-5.72-13.76-.16-20.75 2.38-3.87 1.41-8.76 2.47-12.79 1.49l-7.7-1.86-21.9-5.33-14.1-3.43a24.77 24.77 0 0 1-5.6-1.75c-4.32-2.17-7.2-5.48-10-9.31-2.42-3.33-5.18-6.28-9.57-6.42-11.07-.34-15.1 13.68-6.58 19.78" class="cls-5"/></g><path d="m422.7 320.49 3.6.89 3.54 2.39 2.75 3.48.61 3.92-.39 3.67-1.53 2.99-2.72 2.59-3.77 1.67-5.09-.04-5.64-1.6-4.85-.82-4.31.29-4.96 1.16-5.05 1.87-31.44 14.14-5.75 3.07-4.99 3.89-4.09 5.08-3.38 5.42-2.68 3.66-4.02 3.52-5.65 1.55-4.75-.14-4.76-3.08-1.83-5.58-.41-4.93.99-3.75 1.24-2.25-3.78-.52-3.35-1.79-2.63-3.19-1.63-5.05 1.09-5.71 5.24-4.83 7.04-.03 6.07 1.58 6.04.75 5.56-.82 6.94-3.05 35.16-15.61 6.74-3.51 4.27-4.72 3.8-6.29 3.36-5.55 3.94-3.64 5.78-.88 4.55 1.59 4.03 3.08 2.41 3.42.74 4.87-.92 4.44-1.12 2.4z" class="cls-5"/><g id="hueso-3" data-name="hueso"><path d="M325.29 154.04c-4 3.48-5.38 9-3.78 14.64a9.74 9.74 0 0 0 11.2 7.44c7.86-.1 11.42-7.32 15.4-13.6a29.55 29.55 0 0 1 12.88-11.48c6.83-3.4 13.76-6.48 20.74-9.59 3.07-1.35 6.2-2.56 9.21-4 5.66-2.66 11.72-5.15 18.08-5 6.66.12 12.89 5.35 19.16 1.12 9.12-6.15 4.4-19.65-5.79-19.92" class="cls-5"/><path d="M419.96 115.97a14.48 14.48 0 0 0 4.53-7.66c.84-8.27-4.92-13.62-12.27-14.88-8.27-.84-11 8.27-15 14.56-2.21 3.48-5.43 7.3-9.23 9l-7.22 3.21-20.6 9.14-13.26 5.89a24.74 24.74 0 0 1-5.52 2c-4.75.91-9.06.05-13.6-1.29-3.94-1.16-7.93-1.81-11.49.76-9 6.49-3.62 20.06 6.86 19.69" class="cls-5"/></g><path d="m422.7 113.45 3.6.89 3.54 2.38 2.75 3.48.61 3.93-.39 3.67-1.53 2.98-2.72 2.59-3.77 1.67-5.09-.04-5.64-1.6-4.85-.82-4.31.3-4.96 1.15-5.05 1.88-31.44 14.14-5.75 3.07-4.99 3.89-4.09 5.07-3.38 5.42-2.68 3.67-4.02 3.51-5.65 1.56-4.75-.15-4.76-3.08-1.83-5.58-.41-4.93.99-3.75 1.24-2.25-3.78-.51-3.35-1.79-2.63-3.19-1.63-5.05 1.09-5.71 5.24-4.83 7.04-.04 6.07 1.58 6.04.76 5.56-.83 6.94-3.04 35.16-15.62 6.74-3.51 4.27-4.72 3.8-6.28 3.36-5.55 3.94-3.65 5.78-.88 4.55 1.59 4.03 3.09 2.41 3.42.74 4.87-.92 4.44-1.12 2.4z" class="cls-5"/><g id="hueso-4" data-name="hueso"><path d="M136.43 107.6c-4.72-2.41-10.35-1.64-15 2a9.76 9.76 0 0 0-2.72 13.17c3 7.25 11.06 7.86 18.37 9.21 5.91.84 11 3.75 15.44 7.67 5.7 5.07 11.15 10.35 16.63 15.67 2.4 2.33 4.69 4.79 7.13 7.06 4.58 4.25 9.16 8.94 11.42 14.89 2.37 6.22-.16 14 6.11 18.2 9.11 6.16 19.87-3.26 16.32-12.81" class="cls-5"/><path d="M207.09 181.22a14.5 14.5 0 0 0 8.8 1.34c8-2.3 10.8-9.64 9.23-16.91-2.31-8-11.78-7.12-19.09-8.47-4.05-.75-8.8-2.31-11.78-5.21l-5.67-5.5-16.17-15.7L162 120.66a24.42 24.42 0 0 1-3.95-4.36c-2.62-4.07-3.43-8.38-3.88-13.09-.4-4.1-1.28-8-5-10.38-9.36-5.92-19.95 4.13-15.7 13.71" class="cls-5"/></g><path d="m210.46 182.82.52 3.67-.89 4.17-2.21 3.85-3.41 2.04-3.55.99-3.34-.29-3.42-1.57-2.96-2.87-1.85-4.73-.63-5.83-1.05-4.81-1.87-3.88-2.93-4.18-3.62-3.98-24.85-23.89-5-4.2-5.47-3.17-6.24-1.9-6.28-1.12-4.4-1.12-4.76-2.42-3.56-4.66-1.63-4.46 1.08-5.56 4.49-3.78 4.42-2.22 3.85-.49 2.55.31-.93-3.69.41-3.78 1.98-3.63 4.07-3.4 5.71-1.11 6.44 3.05 2.65 6.52.81 6.23 1.54 5.88 2.85 4.85 5.41 5.3 27.61 26.8 5.77 4.94 5.97 2.2 7.25 1.18 6.41 1.05 4.85 2.29 2.97 5.04.22 4.81-1.36 4.89-2.27 3.51-4.24 2.51-4.46.8-2.65-.14z" class="cls-5"/><g id="hueso-5" data-name="hueso"><path d="M133.5 412.68c-4.72-2.41-10.35-1.64-15 2a9.76 9.76 0 0 0-2.72 13.17c3 7.25 11.06 7.86 18.38 9.21 5.9.84 11 3.75 15.43 7.67 5.7 5.07 11.15 10.35 16.63 15.67 2.41 2.33 4.7 4.79 7.14 7.06 4.58 4.25 9.15 8.94 11.41 14.89 2.37 6.22-.15 14 6.11 18.2 9.11 6.16 19.87-3.26 16.32-12.81" class="cls-5"/><path d="M204.22 486.3a14.47 14.47 0 0 0 8.79 1.34c8-2.3 10.8-9.64 9.24-16.91-2.31-8-11.78-7.12-19.1-8.47-4.05-.75-8.8-2.31-11.78-5.21l-5.66-5.5-16.18-15.7-10.41-10.11a24.8 24.8 0 0 1-4-4.36c-2.62-4.07-3.43-8.38-3.88-13.09-.39-4.1-1.28-8-5-10.38-9.37-5.92-20 4.13-15.71 13.71" class="cls-5"/></g><path d="m207.54 487.9.51 3.67-.89 4.17-2.2 3.85-3.41 2.04-3.55 1-3.35-.3-3.42-1.57-2.95-2.87-1.86-4.73-.62-5.83-1.05-4.81-1.88-3.89-2.93-4.17-3.62-3.98-24.85-23.89-5-4.2-5.46-3.17-6.24-1.9-6.29-1.12-4.4-1.12-4.76-2.42-3.55-4.66-1.64-4.46 1.08-5.56 4.49-3.78 4.42-2.22 3.85-.49 2.55.31-.93-3.69.41-3.78 1.98-3.63 4.08-3.4 5.7-1.11 6.44 3.05 2.66 6.52.8 6.23 1.55 5.88 2.84 4.85 5.42 5.3 27.6 26.8 5.77 4.94 5.98 2.2 7.24 1.17 6.41 1.06 4.85 2.29 2.98 5.04.22 4.81-1.36 4.89-2.27 3.51-4.25 2.51-4.46.8-2.64-.14z" class="cls-5"/><g id="hueso-6" data-name="hueso"><path d="M424.4 573.04c4.18-3.26 5.88-8.68 4.6-14.41a9.75 9.75 0 0 0-10.78-8.1c-7.85-.34-11.81 6.68-16.14 12.72a29.54 29.54 0 0 1-13.5 10.72c-7 3-14.1 5.7-21.25 8.41-3.13 1.18-6.33 2.21-9.42 3.46-5.8 2.34-12 4.49-18.33 4-6.64-.5-12.57-6.07-19.07-2.19-9.45 5.63-5.49 19.37 4.67 20.21" class="cls-5"/><path d="M327.74 605.72a14.43 14.43 0 0 0-5 7.39c-1.3 8.21 4.15 13.87 11.4 15.54 8.21 1.31 11.45-7.64 15.77-13.69 2.4-3.35 5.83-7 9.72-8.45l7.38-2.8 21.09-8 13.57-5.13a24.6 24.6 0 0 1 5.63-1.72c4.79-.65 9 .45 13.5 2 3.87 1.38 7.81 2.25 11.51-.11 9.34-6 4.74-19.82-5.74-20" class="cls-5"/></g><path d="m324.87 608.09-3.54-1.09-3.4-2.58-2.55-3.63-.39-3.95.6-3.64 1.69-2.9 2.87-2.43 3.85-1.46 5.08.33 5.54 1.91 4.8 1.09 4.31-.05 5.03-.88 5.14-1.59 32.18-12.35 5.92-2.75 5.19-3.6 4.38-4.84 3.68-5.22 2.88-3.51 4.21-3.28 5.72-1.24 4.74.41 4.58 3.34 1.51 5.68.14 4.94-1.2 3.69-1.36 2.18 3.74.72 3.24 1.98 2.45 3.33 1.35 5.13-1.42 5.64-5.49 4.53-7.04-.36-5.97-1.91-5.98-1.1-5.61.52-7.1 2.65-35.98 13.61-6.92 3.13-4.53 4.47-4.14 6.07-3.68 5.35-4.13 3.42-5.82.56-4.46-1.85-3.85-3.31-2.21-3.54-.47-4.91 1.18-4.38 1.24-2.33z" class="cls-5"/><g id="hueso-7" data-name="hueso"><path d="M128.36 716.63c-4.95-1.9-10.47-.53-14.71 3.53a9.77 9.77 0 0 0-1.31 13.39c3.78 6.89 11.84 6.64 19.25 7.21 6 .21 11.37 2.56 16.17 6 6.2 4.43 12.18 9.1 18.2 13.81 2.63 2.07 5.17 4.27 7.84 6.26 5 3.75 10.05 7.93 12.93 13.6 3 5.94 1.33 13.9 8 17.45 9.72 5.16 19.42-5.35 14.87-14.47" class="cls-5"/><path d="M206.44 782.33a14.48 14.48 0 0 0 8.89.4c7.7-3.14 9.71-10.73 7.38-17.8-3.14-7.7-12.47-5.83-19.88-6.39-4.11-.32-9-1.37-12.27-3.93l-6.22-4.87-17.75-13.89q-5.7-4.48-11.42-8.95a24.78 24.78 0 0 1-4.39-3.92c-3-3.76-4.3-8-5.25-12.6-.82-4-2.12-7.86-6.07-9.79-9.94-4.89-19.4 6.22-14.16 15.29" class="cls-5"/></g><path d="m209.96 783.56.9 3.6-.44 4.24-1.79 4.06-3.17 2.39-3.43 1.37-3.35.06-3.57-1.19-3.24-2.54-2.35-4.52-1.24-5.73-1.55-4.67-2.28-3.66-3.36-3.84-4.02-3.57-27.25-21.13-5.41-3.63-5.77-2.58-6.41-1.23-6.37-.44-4.49-.65-4.99-1.9-4.03-4.25-2.1-4.27.48-5.64 4.07-4.24 4.16-2.68 3.77-.89 2.57.04-1.32-3.58.01-3.79 1.59-3.82 3.68-3.81 5.56-1.72 6.72 2.36 3.34 6.2 1.46 6.1 2.16 5.69 3.35 4.52 5.94 4.69 30.3 23.72 6.26 4.3 6.18 1.56 7.33.39 6.48.37 5.06 1.76 3.5 4.7.73 4.76-.84 5.01-1.88 3.73-3.96 2.94-4.35 1.27-2.64.14z" class="cls-5"/><g id="hueso-8" data-name="hueso"><path d="M537.93 474.73c-3-4.37-8.32-6.38-14.11-5.44a9.75 9.75 0 0 0-8.69 10.27c-.8 7.81 6 12.18 11.75 16.87 4.78 3.56 7.89 8.56 9.89 14.11 2.59 7.17 4.85 14.42 7.13 21.71 1 3.2 1.83 6.45 2.89 9.61 2 5.92 3.77 12.23 2.92 18.54-.89 6.59-6.8 12.18-3.33 18.9 5.06 9.77 19 6.63 20.46-3.46" class="cls-5"/><path d="M564.84 573.16a14.42 14.42 0 0 0 7.09 5.38c8.12 1.79 14.09-3.31 16.19-10.45 1.79-8.12-7-11.88-12.73-16.56-3.2-2.59-6.62-6.23-7.86-10.2-.78-2.51-1.57-5-2.35-7.54q-3.36-10.75-6.71-21.52l-4.32-13.85a24.49 24.49 0 0 1-1.38-5.72c-.36-4.82 1-9 2.84-13.35 1.61-3.79 2.71-7.67.57-11.51-5.4-9.67-19.5-5.9-20.34 4.54" class="cls-5"/></g><path d="m567.04 576.18-1.3 3.47-2.78 3.24-3.77 2.33-3.97.16-3.6-.82-2.79-1.86-2.26-3.01-1.22-3.93.63-5.05 2.24-5.42 1.37-4.72.21-4.32-.58-5.06-1.28-5.23-10.42-32.86-2.39-6.07-3.28-5.4-4.58-4.65-4.99-3.99-3.33-3.08-3.03-4.4-.89-5.79.69-4.7 3.61-4.37 5.75-1.17 4.95.15 3.61 1.41 2.09 1.5.95-3.7 2.16-3.12 3.47-2.24 5.21-1.04 5.54 1.75 4.2 5.75-.78 7-2.27 5.85-1.45 5.91.18 5.62 2.23 7.25 11.45 36.72 2.71 7.1 4.2 4.79 5.81 4.49 5.12 3.99 3.17 4.33.2 5.85-2.1 4.33-3.53 3.65-3.68 2-4.92.17-4.3-1.43-2.26-1.38z" class="cls-5"/><g id="hueso-9" data-name="hueso"><path d="M522.57 735.92c-3-4.37-8.32-6.39-14.12-5.45a9.76 9.76 0 0 0-8.68 10.27c-.8 7.82 6 12.19 11.74 16.87 4.79 3.56 7.9 8.56 9.9 14.11 2.59 7.18 4.85 14.42 7.13 21.71 1 3.2 1.83 6.46 2.89 9.61 2 5.93 3.77 12.23 2.92 18.54-.9 6.59-6.81 12.19-3.33 18.9 5.06 9.77 19 6.64 20.45-3.45" class="cls-5"/><path d="M549.48 834.35a14.48 14.48 0 0 0 7.09 5.38c8.12 1.79 14.09-3.32 16.19-10.45 1.79-8.12-6.95-11.88-12.73-16.56-3.2-2.6-6.63-6.24-7.86-10.2q-1.19-3.78-2.35-7.54-3.36-10.77-6.71-21.52l-4.32-13.86a25.06 25.06 0 0 1-1.39-5.71c-.36-4.83 1-9 2.85-13.36 1.61-3.79 2.71-7.67.57-11.5-5.41-9.68-19.51-5.91-20.35 4.54" class="cls-5"/></g><path d="m551.68 837.36-1.3 3.47-2.78 3.24-3.77 2.33-3.97.16-3.6-.82-2.79-1.86-2.26-3-1.23-3.94.64-5.05 2.23-5.41 1.38-4.73.2-4.31-.58-5.07-1.28-5.22-10.42-32.87-2.38-6.06-3.29-5.41-4.57-4.65-4.99-3.98-3.33-3.09-3.03-4.4-.9-5.79.7-4.7 3.61-4.37 5.75-1.17 4.94.15 3.61 1.42 2.1 1.49.94-3.7 2.17-3.11 3.47-2.25 5.2-1.04 5.55 1.75 4.19 5.76-.77 7-2.27 5.85-1.45 5.9.18 5.62 2.22 7.25 11.46 36.73 2.71 7.09 4.19 4.8 5.81 4.49 5.13 3.98 3.16 4.33.21 5.85-2.11 4.34-3.53 3.64-3.67 2-4.93.17-4.3-1.42-2.25-1.39z" class="cls-5"/><g id="hueso-10" data-name="hueso"><path d="M744.06 712.47c-4.93-1.95-10.46-.66-14.75 3.35a9.76 9.76 0 0 0-1.48 13.37c3.69 6.93 11.75 6.79 19.15 7.45a29.56 29.56 0 0 1 16.09 6.2c6.15 4.51 12.07 9.26 18 14 2.61 2.1 5.13 4.34 7.76 6.36 5 3.81 10 8 12.76 13.77 2.94 6 1.15 13.91 7.78 17.54 9.65 5.29 19.49-5.1 15.05-14.27" class="cls-5"/><path d="M821.29 779.16a14.49 14.49 0 0 0 8.89.52c7.74-3 9.85-10.61 7.61-17.71-3.05-7.74-12.39-6-19.8-6.65-4.11-.36-9-1.47-12.22-4.08l-6.15-4.94-17.57-14.13-11.32-9.13a24 24 0 0 1-4.33-4c-3-3.8-4.2-8-5.09-12.67-.78-4-2-7.88-5.94-9.87-9.88-5-19.49 6-14.36 15.12" class="cls-5"/></g><path d="m824.8 780.44.86 3.61-.5 4.24-1.84 4.03-3.2 2.35-3.44 1.32-3.36.02-3.55-1.24-3.21-2.58-2.29-4.54-1.17-5.74-1.49-4.69-2.23-3.7-3.31-3.88-3.98-3.62-26.97-21.47-5.37-3.71-5.74-2.65-6.39-1.31-6.36-.52-4.49-.71-4.97-1.96-3.97-4.3-2.04-4.29.55-5.64 4.12-4.18 4.19-2.63 3.79-.84 2.57.07-1.28-3.6.06-3.79 1.63-3.8 3.74-3.77 5.58-1.64 6.69 2.44 3.26 6.24 1.38 6.12 2.09 5.71 3.29 4.57 5.88 4.77 29.99 24.1 6.21 4.38 6.16 1.64 7.32.49 6.48.45 5.04 1.82 3.43 4.74.67 4.78-.89 4.99-1.94 3.71-3.99 2.89-4.36 1.21-2.65.11z" class="cls-5"/><g id="hueso-11" data-name="hueso"><path d="M1050.15 703.41c-2.59-4.62-7.7-7.11-13.56-6.7a9.76 9.76 0 0 0-9.57 9.45c-1.51 7.71 4.83 12.68 10.17 17.86a29.6 29.6 0 0 1 8.58 14.95c1.93 7.38 3.53 14.79 5.14 22.26.71 3.28 1.25 6.59 2 9.83 1.45 6.08 2.65 12.52 1.23 18.73-1.48 6.49-7.88 11.52-5 18.52 4.16 10.19 18.34 8.33 20.68-1.59" class="cls-5"/><path d="M1068.08 803.87a14.52 14.52 0 0 0 6.57 6c7.93 2.51 14.34-2 17.07-9 2.51-7.93-5.85-12.46-11.18-17.64-3-2.87-6-6.81-6.91-10.87-.56-2.57-1.11-5.15-1.66-7.72q-2.37-11-4.75-22-1.51-7.1-3-14.19a24.81 24.81 0 0 1-.86-5.82c.07-4.83 1.79-8.87 4-13 2-3.62 3.4-7.39 1.61-11.41-4.51-10.12-18.89-7.64-20.67 2.69" class="cls-5"/></g><path d="m1070 807.07-1.61 3.34-3.06 2.97-3.97 1.98-3.96-.2-3.51-1.14-2.61-2.1-1.98-3.2-.87-4.03 1.08-4.97 2.72-5.19 1.79-4.58.6-4.28-.12-5.1-.8-5.32-7.42-33.66-1.83-6.26-2.78-5.68-4.13-5.05-4.62-4.41-3.04-3.38-2.61-4.65-.38-5.85 1.12-4.62 3.99-4.03 5.83-.65 4.91.61 3.47 1.73 1.95 1.67 1.28-3.59 2.43-2.91 3.66-1.92 5.28-.57 5.36 2.24 3.67 6.11-1.41 6.9-2.79 5.63-1.97 5.75-.33 5.61 1.56 7.42 8.09 37.61 2.07 7.31 3.74 5.15 5.38 5 4.74 4.43 2.77 4.59-.32 5.85-2.49 4.13-3.85 3.31-3.83 1.66-4.93-.27-4.15-1.81-2.12-1.58z" class="cls-5"/><g id="hueso-12" data-name="hueso"><path d="M1150.46 474.39c-3.3-4.15-8.75-5.78-14.46-4.43a9.76 9.76 0 0 0-7.93 10.87c-.24 7.85 6.82 11.73 12.92 16 5 3.21 8.49 8 10.88 13.37 3.09 7 5.87 14 8.66 21.15 1.22 3.12 2.29 6.3 3.58 9.37 2.41 5.77 4.63 11.93 4.23 18.29-.42 6.64-5.92 12.64-2 19.09 5.75 9.38 19.44 5.25 20.16-4.91" class="cls-5"/><path d="M1184.35 570.64a14.53 14.53 0 0 0 7.45 4.86c8.23 1.2 13.82-4.32 15.4-11.58 1.21-8.23-7.77-11.36-13.88-15.61-3.37-2.36-7.05-5.75-8.57-9.61l-2.88-7.35q-4.12-10.5-8.23-21-2.65-6.75-5.3-13.51a24.54 24.54 0 0 1-1.79-5.6c-.71-4.79.34-9 1.88-13.53 1.33-3.89 2.16-7.84-.26-11.51-6.08-9.27-19.87-4.5-20 6" class="cls-5"/></g><path d="m1186.76 573.49-1.05 3.55-2.54 3.43-3.6 2.59-3.95.45-3.64-.56-2.92-1.66-2.47-2.83-1.5-3.84.27-5.08 1.84-5.56 1.03-4.82-.1-4.31-.94-5.01-1.65-5.12-12.74-32.04-2.82-5.88-3.66-5.15-4.89-4.32-5.27-3.61-3.54-2.84-3.33-4.17-1.31-5.71.35-4.74 3.29-4.62 5.65-1.58 4.94-.2 3.71 1.15 2.19 1.34.68-3.75 1.94-3.27 3.3-2.48 5.12-1.41 5.65 1.34 4.6 5.44-.28 7.04-1.84 6-1.02 6 .58 5.59 2.74 7.07 14.05 35.81 3.21 6.88 4.53 4.49 6.11 4.06 5.4 3.61 3.47 4.09.62 5.82-1.79 4.47-3.26 3.89-3.52 2.26-4.9.53-4.39-1.12-2.35-1.22z" class="cls-5"/><g id="hueso-13" data-name="hueso"><path d="M745.84 409.52c-5-1.78-10.48-.29-14.62 3.87a9.75 9.75 0 0 0-1 13.41c3.93 6.8 12 6.37 19.41 6.77a29.6 29.6 0 0 1 16.29 5.62c6.31 4.3 12.39 8.83 18.51 13.4 2.69 2 5.27 4.15 8 6.08 5.09 3.63 10.23 7.7 13.24 13.31 3.15 5.86 1.64 13.86 8.4 17.26 9.83 4.94 19.29-5.79 14.53-14.8" class="cls-5"/><path d="M825.39 473.44a14.51 14.51 0 0 0 8.89.2c7.63-3.32 9.47-11 7-18-3.31-7.62-12.59-5.54-20-5.94-4.12-.22-9-1.16-12.35-3.65l-6.33-4.72-18.06-13.49-11.63-8.69a25 25 0 0 1-4.47-3.81c-3.13-3.7-4.48-7.87-5.54-12.49-.91-4-2.3-7.8-6.28-9.65-10.05-4.66-19.26 6.66-13.81 15.62" class="cls-5"/></g><path d="m828.94 474.59.98 3.57-.35 4.26-1.69 4.1-3.12 2.45-3.39 1.45-3.35.13-3.6-1.11-3.3-2.46-2.45-4.46-1.37-5.7-1.66-4.63-2.36-3.62-3.44-3.76-4.1-3.48-27.72-20.5-5.49-3.51-5.83-2.45-6.44-1.08-6.38-.3-4.5-.55-5.04-1.78-4.12-4.16-2.2-4.22.36-5.65 3.97-4.33 4.1-2.77 3.75-.98 2.57-.02-1.4-3.54-.08-3.8 1.5-3.85 3.6-3.9 5.52-1.84 6.77 2.2 3.48 6.13 1.59 6.07 2.3 5.63 3.44 4.45 6.05 4.56 30.83 23.02 6.35 4.15 6.21 1.42 7.34.23 6.49.22 5.1 1.65 3.6 4.61.84 4.75-.72 5.03-1.8 3.77-3.88 3.03-4.33 1.37-2.63.2z" class="cls-5"/><g id="hueso-14" data-name="hueso"><path d="M1033.5 264.92c3.87-3.63 5-9.19 3.23-14.78a9.76 9.76 0 0 0-11.48-7c-7.85.4-11.13 7.76-14.87 14.19-2.79 5.27-7.26 9.11-12.44 11.94-6.69 3.65-13.5 7-20.36 10.36-3 1.48-6.1 2.8-9.05 4.33-5.55 2.88-11.51 5.6-17.88 5.72-6.65.13-13.08-4.86-19.18-.39-8.88 6.49-3.65 19.8 6.54 19.68" class="cls-5"/><path d="M940.35 306.58a14.48 14.48 0 0 0-4.23 7.83c-.52 8.3 5.43 13.42 12.81 14.4 8.3.53 10.67-8.68 14.42-15.11 2.07-3.56 5.14-7.5 8.87-9.33l7.09-3.48 20.24-9.93 13-6.38a24.87 24.87 0 0 1 5.44-2.25c4.71-1.09 9.05-.4 13.63.77 4 1 8 1.51 11.46-1.2 8.73-6.82 2.85-20.18-7.6-19.41" class="cls-5"/></g><path d="m937.72 309.21-3.63-.75-3.63-2.25-2.88-3.38-.76-3.89.26-3.68 1.41-3.05 2.62-2.69 3.7-1.81 5.09-.15 5.69 1.38 4.88.64 4.3-.46 4.91-1.35 4.97-2.06 30.88-15.33 5.63-3.28 4.84-4.08 3.9-5.23 3.17-5.54 2.54-3.77 3.88-3.66 5.59-1.77 4.75-.04 4.87 2.9 2.04 5.5.6 4.91-.84 3.79-1.15 2.3 3.79.37 3.41 1.66 2.75 3.09 1.83 4.98-.88 5.75-5.05 5.03-7.03.29-6.13-1.34-6.06-.53-5.53 1.04-6.82 3.31L975.09 303l-6.59 3.76-4.1 4.88-3.55 6.43-3.15 5.67-3.8 3.8-5.74 1.09-4.61-1.41-4.15-2.93-2.53-3.33-.93-4.84.76-4.47 1.02-2.44z" class="cls-5"/><g id="hueso-15" data-name="hueso"><path d="M784.46 92.64c.54-5.27-2.21-10.25-7.23-13.28a9.75 9.75 0 0 0-13.27 2.21c-5.67 5.43-3.35 13.14-2 20.45a29.6 29.6 0 0 1-1.59 17.17c-2.67 7.14-5.63 14.13-8.62 21.16-1.31 3.08-2.78 6.11-4 9.2-2.32 5.8-5.05 11.76-9.78 16-5 4.45-13.07 4.88-14.77 12.25-2.47 10.72 10.2 17.37 17.83 10.61" class="cls-5"/><path d="M741.22 185.09a14.5 14.5 0 0 0 1.92 8.69c5 6.62 12.89 6.6 19.11 2.52 6.62-5 2.39-13.56 1-20.87-.77-4-1-9 .6-12.86l3.09-7.27 8.82-20.75 5.67-13.35a24.71 24.71 0 0 1 2.65-5.26c2.85-3.91 6.58-6.22 10.81-8.34 3.68-1.84 7-4.09 7.88-8.4 2.14-10.87-11-17.12-18.45-9.7" class="cls-5"/></g><path d="m740.99 188.81-3.24 1.81-4.21.67-4.39-.67-3.13-2.45-2.21-2.95-.92-3.22.22-3.76 1.61-3.79 3.75-3.44 5.21-2.68 4.11-2.72 2.95-3.15 2.84-4.24 2.4-4.81 13.33-31.79 2.11-6.17.99-6.25-.47-6.5-1.23-6.27-.54-4.51.54-5.31 3.06-4.99 3.58-3.14 5.58-.99 5.14 2.82 3.67 3.33 1.84 3.41.63 2.49 3.11-2.2 3.67-.98 4.1.54 4.64 2.57 3.09 4.92-.53 7.11-5.12 4.83-5.52 2.99-4.92 3.57-3.5 4.4-3 6.96-15.04 35.41-2.53 7.16.1 6.37 1.52 7.19 1.33 6.35-.39 5.35-3.63 4.59-4.41 1.95-5.05.49-4.1-.86-3.86-3.05-2.36-3.88-.82-2.51zM564.41 273.02l-1.3 3.48-2.77 3.24-3.77 2.34-3.97.17-3.6-.82-2.79-1.85-2.26-3-1.24-3.94.62-5.04 2.23-5.42 1.36-4.74.21-4.31-.6-5.06-1.28-5.22L534.77 210l-2.4-6.06-3.3-5.4-4.58-4.64-5-3.98-3.33-3.08-3.04-4.39-.9-5.79.68-4.7 3.6-4.38 5.75-1.18 4.94.15 3.62 1.4 2.09 1.49.94-3.69 2.16-3.13 3.47-2.25 5.2-1.05 5.55 1.74 4.21 5.75-.77 7-2.26 5.85-1.43 5.91.19 5.62 2.23 7.25 11.52 36.7 2.73 7.09 4.2 4.79 5.82 4.48 5.13 3.97 3.18 4.33.21 5.84-2.09 4.35-3.53 3.65-3.67 2-4.92.19-4.31-1.43-2.25-1.38z" class="cls-5"/><g id="hueso-16" data-name="hueso"><path d="M535.55 172.2c-3-4.36-8.33-6.37-14.12-5.41a9.76 9.76 0 0 0-8.66 10.25c-.79 7.81 6 12.17 11.78 16.84 4.8 3.55 7.92 8.54 9.94 14.09 2.6 7.17 4.88 14.4 7.17 21.69 1 3.2 1.85 6.45 2.92 9.6 2 5.92 3.8 12.22 3 18.54-.87 6.59-6.77 12.2-3.28 18.9 5.08 9.76 19 6.59 20.45-3.5" class="cls-5"/><path d="M562.7 270.56a14.53 14.53 0 0 0 7.1 5.37c8.13 1.77 14.09-3.35 16.17-10.49 1.77-8.13-7-11.87-12.77-16.53-3.2-2.59-6.64-6.22-7.88-10.18l-2.37-7.54q-3.39-10.74-6.76-21.5-2.19-6.93-4.36-13.84a25 25 0 0 1-1.4-5.72c-.37-4.82 1-9 2.81-13.36 1.61-3.79 2.7-7.68.55-11.51-5.43-9.66-19.52-5.86-20.34 4.59" class="cls-5"/></g><path d="m564.91 273.57-1.29 3.48-2.77 3.24-3.77 2.34-3.97.17-3.6-.81-2.79-1.85-2.27-3-1.23-3.94.62-5.04 2.22-5.43 1.36-4.73.2-4.31-.59-5.06-1.3-5.22-10.49-32.84-2.41-6.07-3.3-5.39-4.58-4.64-5-3.97-3.34-3.08-3.03-4.39-.92-5.79.69-4.7 3.6-4.38 5.74-1.19 4.95.15 3.61 1.4 2.1 1.49.94-3.7 2.15-3.12 3.47-2.25 5.2-1.06 5.55 1.74 4.21 5.74-.76 7-2.25 5.86-1.44 5.91.2 5.62 2.24 7.24 11.54 36.7 2.73 7.09 4.2 4.78 5.82 4.48 5.14 3.97 3.17 4.32.22 5.85-2.09 4.34-3.52 3.66-3.67 2-4.92.19-4.31-1.42-2.26-1.38zM1138.54 166.78l2.3 2.9 1.35 4.05.05 4.43-1.9 3.49-2.56 2.66-3.03 1.44-3.74.38-4-.97-4-3.14-3.5-4.71-3.34-3.61-3.59-2.4-4.64-2.11-5.14-1.59-33.54-7.99-6.43-1.08-6.32.04-6.34 1.52-5.99 2.23-4.36 1.27-5.33.32-5.42-2.21-3.68-3.01-1.89-5.35 1.96-5.53 2.68-4.16 3.07-2.37 2.36-1.02-2.68-2.72-1.56-3.46-.14-4.13 1.79-5 4.35-3.85 7.1-.63 5.6 4.27 3.85 4.95 4.31 4.29 4.92 2.74 7.35 1.82 37.38 9.09 7.48 1.33 6.27-1.13 6.84-2.66 6.06-2.34 5.34-.49 5.12 2.83 2.63 4.04 1.31 4.91-.18 4.17-2.38 4.32-3.45 2.95-2.34 1.22zM1028.47 556.8l3.6.89 3.54 2.39 2.75 3.48.62 3.92-.4 3.67-1.53 2.99-2.72 2.59-3.77 1.67-5.09-.05-5.64-1.59-4.85-.82-4.31.29-4.96 1.16-5.04 1.87-31.45 14.14-5.75 3.07-4.99 3.89-4.09 5.08-3.38 5.41-2.68 3.67-4.02 3.51-5.65 1.56-4.75-.14-4.76-3.08-1.83-5.58-.41-4.93.99-3.75 1.24-2.25-3.78-.52-3.35-1.79-2.63-3.19-1.63-5.05 1.09-5.71 5.24-4.83 7.04-.03 6.07 1.58 6.04.75 5.56-.82 6.94-3.05 35.16-15.61 6.74-3.51 4.27-4.72 3.8-6.29 3.36-5.55 3.94-3.64 5.78-.89 4.56 1.6 4.02 3.08 2.41 3.42.74 4.87-.92 4.44-1.12 2.4z" class="cls-5"/><g id="hueso-17" data-name="hueso"><path d="M931.06 597.41c-4 3.48-5.38 9-3.78 14.65a9.76 9.76 0 0 0 11.2 7.44c7.86-.1 11.42-7.33 15.4-13.61 3-5.17 7.6-8.83 12.88-11.46 6.83-3.39 13.76-6.48 20.75-9.58 3.06-1.36 6.19-2.57 9.2-4 5.66-2.66 11.72-5.15 18.09-5 6.65.13 12.88 5.35 19.15 1.12 9.12-6.15 4.4-19.65-5.79-19.91" class="cls-5"/><path d="M1025.73 559.33a14.55 14.55 0 0 0 4.53-7.66c.84-8.28-4.92-13.62-12.25-14.88-8.27-.84-11 8.27-15 14.55-2.21 3.48-5.43 7.3-9.23 9l-7.22 3.2-20.6 9.15-13.26 5.89a25.22 25.22 0 0 1-5.52 2c-4.75.92-9.06.06-13.6-1.28-3.94-1.17-7.93-1.81-11.49.76-9 6.48-3.62 20.05 6.86 19.68" class="cls-5"/></g></g><g id="circulos"><path d="M484.22 804.79c-7.07 2.63-8.55 13-1 16a8.75 8.75 0 0 0 9.48-2.12 8.76 8.76 0 0 0 1.29-9.63c-1.71-3.34-6.13-5.61-9.77-4.25ZM63.4 538.13c-11.84 4.39-14.31 21.74-1.68 26.86a14.66 14.66 0 0 0 15.88-3.57 14.65 14.65 0 0 0 2.23-16.12c-2.86-5.65-10.27-9.45-16.43-7.17ZM229.47 350.11c-11.83 4.39-14.31 21.74-1.68 26.86a14.66 14.66 0 0 0 15.88-3.57 14.66 14.66 0 0 0 2.23-16.13c-2.86-5.64-10.27-9.45-16.43-7.16ZM377.99 478.14c-11.84 4.39-14.31 21.74-1.68 26.86a14.66 14.66 0 0 0 15.91-3.57 14.65 14.65 0 0 0 2.23-16.12c-2.89-5.65-10.3-9.45-16.46-7.17ZM220.81 407.53c-7.07 2.62-8.54 13-1 16a8.73 8.73 0 0 0 9.48-2.13 8.72 8.72 0 0 0 1.33-9.62c-1.72-3.34-6.14-5.61-9.81-4.25ZM326.89 511.42c-7.07 2.62-8.54 13-1 16a8.74 8.74 0 0 0 9.48-2.13 8.76 8.76 0 0 0 1.33-9.62c-1.71-3.34-6.13-5.63-9.81-4.25ZM506.13 546.54c-7.06 2.62-8.54 13-1 16a8.77 8.77 0 0 0 9.48-2.13 8.76 8.76 0 0 0 1.33-9.63c-1.72-3.34-6.13-5.61-9.81-4.24ZM302.71 447.26c-5 1.84-6 9.1-.7 11.25a6.15 6.15 0 0 0 6.65-1.49 6.17 6.17 0 0 0 .93-6.76c-1.2-2.36-4.3-3.95-6.88-3ZM557.22 334.04c-11.83 4.4-14.31 21.74-1.68 26.86a14.28 14.28 0 0 0 18.11-19.69c-2.85-5.68-10.26-9.48-16.43-7.17ZM528.81 372.41c-7.06 2.63-8.54 13-1 16a8.75 8.75 0 0 0 9.48-2.12 8.76 8.76 0 0 0 1.33-9.63c-1.71-3.34-6.13-5.62-9.81-4.25ZM491.47 344.84c-5 1.84-6 9.1-.71 11.24a6.13 6.13 0 0 0 6.65-1.49 6.11 6.11 0 0 0 .93-6.75c-1.19-2.37-4.3-3.96-6.87-3ZM581.45 495.55c-5 1.84-6 9.1-.7 11.25a6 6 0 0 0 7.58-8.25c-1.2-2.36-4.3-3.96-6.88-3ZM56.93 439.72c-7.07 2.62-8.54 13-1 16a8.73 8.73 0 0 0 9.48-2.13 8.72 8.72 0 0 0 1.33-9.62c-1.72-3.34-6.14-5.61-9.81-4.25ZM4.22 427.51c-5 1.84-6 9.1-.71 11.25a6.15 6.15 0 0 0 6.65-1.5 6.11 6.11 0 0 0 .93-6.75c-1.19-2.36-4.3-3.96-6.87-3ZM108.1 578.22c-4.95 1.84-6 9.1-.7 11.25a6.14 6.14 0 0 0 6.65-1.5 6.11 6.11 0 0 0 .93-6.75c-1.19-2.36-4.3-3.96-6.88-3ZM677.22 538.13c-11.84 4.39-14.31 21.74-1.69 26.86a14.29 14.29 0 0 0 18.12-19.69c-2.87-5.65-10.28-9.45-16.43-7.17ZM843.29 350.11c-11.84 4.39-14.31 21.74-1.68 26.86a14.29 14.29 0 0 0 18.11-19.7c-2.86-5.64-10.27-9.45-16.43-7.16ZM1040.83 452.53c-11.84 4.4-14.32 21.74-1.69 26.86a14.28 14.28 0 0 0 18.08-19.69c-2.83-5.66-10.24-9.45-16.39-7.17ZM834.63 407.53c-7.07 2.62-8.55 13-1 16a8.52 8.52 0 0 0 10.81-11.75c-1.72-3.34-6.14-5.61-9.81-4.25ZM989.73 485.81c-7.07 2.62-8.55 13-1 16a8.52 8.52 0 0 0 10.81-11.75c-1.72-3.34-6.14-5.61-9.81-4.25ZM1119.95 546.54c-7.06 2.62-8.54 13-1 16a8.53 8.53 0 0 0 10.81-11.76c-1.71-3.34-6.13-5.61-9.81-4.24ZM937.02 473.6c-5 1.84-6 9.1-.71 11.25a6 6 0 0 0 7.58-8.25c-1.19-2.36-4.3-3.96-6.87-3ZM1171.05 334.04c-11.84 4.4-14.31 21.74-1.68 26.86a14.28 14.28 0 0 0 18.11-19.69c-2.86-5.68-10.26-9.48-16.43-7.17ZM1142.63 372.41c-7.06 2.63-8.54 13-1 16a8.52 8.52 0 0 0 10.81-11.75c-1.71-3.34-6.13-5.62-9.81-4.25ZM1105.29 344.84c-5 1.84-6 9.1-.71 11.24a6 6 0 0 0 7.58-8.24c-1.19-2.37-4.3-3.96-6.87-3ZM1195.27 495.55c-4.95 1.84-6 9.1-.7 11.25a6 6 0 0 0 7.58-8.25c-1.2-2.36-4.3-3.96-6.88-3ZM670.75 439.72c-7.07 2.62-8.55 13-1 16a8.52 8.52 0 0 0 10.8-11.68c-1.71-3.41-6.13-5.68-9.8-4.32ZM618.03 427.51c-5 1.84-6 9.1-.7 11.25a6 6 0 0 0 7.58-8.25c-1.19-2.36-4.3-3.96-6.88-3ZM721.92 578.22c-4.95 1.84-6 9.1-.7 11.25a6 6 0 0 0 7.58-8.25c-1.2-2.36-4.3-3.96-6.88-3ZM63.4 234.52c-11.84 4.39-14.31 21.73-1.68 26.85a14.65 14.65 0 0 0 15.88-3.56 14.66 14.66 0 0 0 2.23-16.13c-2.86-5.64-10.27-9.45-16.43-7.16ZM229.47 46.49c-11.83 4.4-14.31 21.74-1.68 26.86a14.66 14.66 0 0 0 15.88-3.57 14.65 14.65 0 0 0 2.23-16.12c-2.86-5.62-10.27-9.45-16.43-7.17ZM361.16 236.71c-11.83 4.39-14.31 21.74-1.68 26.86a14.66 14.66 0 0 0 15.88-3.53 14.65 14.65 0 0 0 2.23-16.12c-2.86-5.69-10.27-9.49-16.43-7.21ZM220.81 103.91c-7.07 2.63-8.54 13-1 16a8.75 8.75 0 0 0 9.48-2.12 8.74 8.74 0 0 0 1.33-9.63c-1.72-3.34-6.14-5.61-9.81-4.25ZM310.06 270.04c-7.06 2.62-8.54 13-1 16a8.75 8.75 0 0 0 9.48-2.13 8.74 8.74 0 0 0 1.33-9.62c-1.71-3.39-6.13-5.66-9.81-4.25ZM506.13 242.92c-7.06 2.62-8.54 13-1 16a8.73 8.73 0 0 0 9.48-2.13 8.74 8.74 0 0 0 1.33-9.62c-1.72-3.34-6.13-5.61-9.81-4.25ZM274.22 195.59c-5 1.84-6 9.1-.71 11.25a6.13 6.13 0 0 0 6.65-1.5 6.13 6.13 0 0 0 .94-6.75c-1.24-2.36-4.34-3.96-6.88-3ZM432.22 9.04c-5 1.84-6 9.1-.71 11.25a6.13 6.13 0 0 0 6.65-1.5 6.11 6.11 0 0 0 .92-6.75c-1.19-2.37-4.3-4-6.86-3ZM557.22 30.4c-11.82 4.39-14.3 21.73-1.67 26.86a14.66 14.66 0 0 0 15.88-3.57 14.66 14.66 0 0 0 2.23-16.13c-2.86-5.64-10.27-9.45-16.44-7.16ZM528.81 68.8c-7.06 2.62-8.54 13-1 16a8.77 8.77 0 0 0 9.48-2.13 8.76 8.76 0 0 0 1.33-9.63c-1.71-3.34-6.13-5.61-9.81-4.24ZM491.47 41.22c-5 1.84-6 9.1-.71 11.25a6.13 6.13 0 0 0 6.65-1.5 6.11 6.11 0 0 0 .93-6.75c-1.19-2.36-4.3-3.95-6.87-3ZM581.45 191.93c-5 1.84-6 9.1-.7 11.25a6 6 0 0 0 7.58-8.25c-1.2-2.36-4.3-3.95-6.88-3ZM56.93 136.1c-7.07 2.63-8.54 13-1 16a8.77 8.77 0 0 0 9.48-2.13 8.74 8.74 0 0 0 1.33-9.63c-1.72-3.3-6.14-5.6-9.81-4.24ZM4.22 123.89c-5 1.84-6 9.1-.71 11.25a6.15 6.15 0 0 0 6.65-1.49 6.13 6.13 0 0 0 .93-6.76c-1.19-2.36-4.3-3.95-6.87-3ZM108.1 274.6c-4.95 1.84-6 9.11-.7 11.25a6.13 6.13 0 0 0 6.65-1.49 6.13 6.13 0 0 0 .93-6.76c-1.19-2.36-4.3-3.95-6.88-3ZM677.22 234.52c-11.84 4.39-14.31 21.73-1.69 26.85a14.28 14.28 0 0 0 18.12-19.69c-2.87-5.64-10.28-9.45-16.43-7.16ZM843.29 46.49c-11.84 4.4-14.31 21.74-1.68 26.86a14.66 14.66 0 0 0 15.88-3.57 14.65 14.65 0 0 0 2.23-16.12c-2.86-5.62-10.27-9.45-16.43-7.17ZM991.81 174.52c-11.84 4.4-14.31 21.74-1.69 26.86a14.29 14.29 0 0 0 18.1-19.69c-2.84-5.65-10.25-9.45-16.41-7.17ZM888.03 130.98c-7.06 2.63-8.54 13-1 16a8.52 8.52 0 0 0 10.81-11.75c-1.71-3.34-6.13-5.61-9.81-4.25ZM940.71 207.8c-7.07 2.62-8.54 13-1 16a8.52 8.52 0 0 0 10.8-11.76c-1.7-3.33-6.13-5.6-9.8-4.24ZM1119.95 242.92c-7.06 2.62-8.54 13-1 16a8.52 8.52 0 0 0 10.81-11.75c-1.71-3.34-6.13-5.61-9.81-4.25ZM888 195.59c-5 1.84-6 9.1-.71 11.25a6 6 0 0 0 7.59-8.25c-1.2-2.36-4.3-3.96-6.88-3ZM1171.05 30.4c-11.83 4.39-14.31 21.73-1.68 26.86a14.66 14.66 0 0 0 15.85-3.57 14.66 14.66 0 0 0 2.23-16.13c-2.83-5.64-10.23-9.45-16.4-7.16ZM1142.63 68.8c-7.06 2.62-8.54 13-1 16a8.53 8.53 0 0 0 10.81-11.76c-1.71-3.34-6.13-5.61-9.81-4.24ZM1105.29 41.22c-5 1.84-6 9.1-.71 11.25a6 6 0 0 0 7.58-8.25c-1.19-2.36-4.3-3.95-6.87-3ZM1195.27 191.93c-4.95 1.84-6 9.1-.7 11.25a6 6 0 0 0 7.58-8.25c-1.2-2.36-4.3-3.95-6.88-3ZM670.75 136.1c-7.07 2.63-8.55 13-1 16a8.53 8.53 0 0 0 10.81-11.76c-1.72-3.3-6.14-5.6-9.81-4.24ZM618.03 123.89c-5 1.84-6 9.1-.7 11.25a6 6 0 0 0 7.58-8.25c-1.19-2.36-4.3-3.95-6.88-3ZM721.92 274.6c-4.95 1.84-6 9.11-.7 11.25a6 6 0 0 0 7.58-8.25c-1.2-2.36-4.3-3.95-6.88-3ZM63.4 839.55c-11.84 4.4-14.31 21.74-1.68 26.86a14.65 14.65 0 0 0 15.88-3.56 14.66 14.66 0 0 0 2.23-16.13c-2.86-5.68-10.27-9.45-16.43-7.17ZM229.47 651.53c-11.83 4.39-14.31 21.74-1.68 26.86a14.66 14.66 0 0 0 15.88-3.57 14.65 14.65 0 0 0 2.23-16.12c-2.86-5.66-10.27-9.45-16.43-7.17ZM363.36 797.12c-11.84 4.39-14.31 21.74-1.69 26.86a14.67 14.67 0 0 0 15.89-3.57 14.65 14.65 0 0 0 2.23-16.12c-2.86-5.65-10.28-9.45-16.43-7.17ZM220.81 708.95c-7.07 2.62-8.54 13-1 16a8.73 8.73 0 0 0 9.48-2.13 8.72 8.72 0 0 0 1.33-9.62c-1.72-3.34-6.14-5.61-9.81-4.25ZM312.22 830.4c-7.07 2.62-8.54 13-1 16a8.73 8.73 0 0 0 9.48-2.13 8.73 8.73 0 0 0 1.33-9.62c-1.67-3.34-6.1-5.61-9.81-4.25ZM302.71 739.17c-5 1.84-6 9.11-.7 11.25a6.13 6.13 0 0 0 6.65-1.49 6.17 6.17 0 0 0 .93-6.76c-1.2-2.36-4.3-3.95-6.88-3ZM557.22 635.44c-11.83 4.39-14.31 21.73-1.68 26.85a14.28 14.28 0 0 0 18.11-19.69c-2.85-5.65-10.26-9.45-16.43-7.16ZM528.81 673.84c-7.06 2.62-8.54 13-1 16a8.77 8.77 0 0 0 9.48-2.13 8.76 8.76 0 0 0 1.33-9.63c-1.71-3.34-6.13-5.61-9.81-4.24ZM491.47 646.26c-5 1.84-6 9.1-.71 11.25a6.13 6.13 0 0 0 6.65-1.5 6.11 6.11 0 0 0 .93-6.75c-1.19-2.36-4.3-3.96-6.87-3ZM581.45 776.49c-5 1.84-6 9.1-.7 11.24a6 6 0 0 0 7.58-8.24c-1.2-2.37-4.3-3.96-6.88-3ZM56.93 741.14c-7.07 2.63-8.54 13-1 16a8.75 8.75 0 0 0 9.48-2.12 8.74 8.74 0 0 0 1.33-9.63c-1.72-3.35-6.14-5.61-9.81-4.25ZM4.22 728.93c-5 1.84-6 9.1-.71 11.25a6.13 6.13 0 0 0 6.65-1.5 6.11 6.11 0 0 0 .93-6.75c-1.19-2.36-4.3-3.95-6.87-3ZM108.1 879.64c-4.95 1.84-6 9.1-.7 11.25a6.15 6.15 0 0 0 6.65-1.49 6.13 6.13 0 0 0 .93-6.76c-1.19-2.36-4.3-3.95-6.88-3ZM666.98 802.24c-11.84 4.4-14.32 21.74-1.69 26.86a14.28 14.28 0 0 0 18.11-19.69c-2.86-5.65-10.27-9.45-16.42-7.17ZM843.29 651.53c-11.84 4.39-14.31 21.74-1.68 26.86a14.28 14.28 0 0 0 18.11-19.69c-2.86-5.66-10.27-9.45-16.43-7.17ZM958.89 772.25c-11.84 4.39-14.32 21.73-1.69 26.86a14.28 14.28 0 0 0 18.11-19.7c-2.86-5.64-10.27-9.45-16.42-7.16ZM834.63 708.95c-7.07 2.62-8.55 13-1 16a8.52 8.52 0 0 0 10.81-11.75c-1.72-3.34-6.14-5.61-9.81-4.25ZM887.3 798.94c-7.06 2.62-8.54 13-1 16a8.52 8.52 0 0 0 10.81-11.75c-1.71-3.34-6.13-5.61-9.81-4.25ZM1119.95 847.96c-7.06 2.62-8.54 13-1 16a8.52 8.52 0 0 0 10.81-11.75c-1.71-3.35-6.13-5.62-9.81-4.25ZM864.59 864.28c-5 1.84-6 9.1-.71 11.25a6 6 0 0 0 7.58-8.25c-1.19-2.36-4.3-3.96-6.87-3ZM1171.05 635.44c-11.84 4.39-14.31 21.73-1.68 26.85a14.28 14.28 0 0 0 18.11-19.69c-2.86-5.65-10.26-9.45-16.43-7.16ZM1142.63 673.84c-7.06 2.62-8.54 13-1 16a8.53 8.53 0 0 0 10.81-11.76c-1.71-3.34-6.13-5.61-9.81-4.24ZM1105.29 646.26c-5 1.84-6 9.1-.71 11.25a6 6 0 0 0 7.58-8.25c-1.19-2.36-4.3-3.96-6.87-3ZM1203.32 871.6c-5 1.83-6 9.1-.7 11.24a6 6 0 0 0 7.58-8.24c-1.2-2.37-4.3-3.96-6.88-3ZM670.75 741.14c-7.07 2.63-8.55 13-1 16a8.52 8.52 0 0 0 10.81-11.75c-1.72-3.35-6.14-5.61-9.81-4.25ZM561.74 881.61c-7.07 2.62-8.55 13-1 16a8.52 8.52 0 0 0 10.81-11.75c-1.72-3.34-6.14-5.61-9.81-4.25ZM618.03 728.93c-5 1.84-6 9.1-.7 11.25a6 6 0 0 0 7.58-8.25c-1.19-2.36-4.3-3.95-6.88-3ZM693.39 879.64c-5 1.84-6 9.1-.7 11.25a6 6 0 0 0 7.58-8.25c-1.2-2.36-4.3-3.95-6.88-3Z" class="cls-5"/></g></g><g class="cls-4"><g id="huellas-2" data-name="huellas"><path d="M1658.22 453.11a26.28 26.28 0 0 1 3.63-10c10.08-16.19 31.28-15.8 42.31-1.18a27.21 27.21 0 0 1 5.51 13.5c.5 5.07-.83 10.54-4 13.92s-8.15 4.19-11.62 1.33a15.71 15.71 0 0 1-3.71-4.49c-.94-1.75-1.88-3.57-3.83-4.38a6.13 6.13 0 0 0-2.65-.42 7.35 7.35 0 0 0-6.47 4.06c-1.07 2.07-2.19 4.42-4.45 5.4a7.5 7.5 0 0 1-4.86.21c-8.38-2.19-10.97-10.12-9.86-17.95ZM1669.93 411.69c-7.11 2.64-8.59 13-1 16.12a8.57 8.57 0 0 0 10.85-11.77c-1.71-3.44-6.16-5.72-9.85-4.35ZM1692.51 411.69c-7.1 2.64-8.58 13-1 16.12a8.57 8.57 0 0 0 10.86-11.77c-1.71-3.44-6.15-5.72-9.86-4.35ZM1711.22 426.33c-5.94 1.31-7.71 9.26-3.31 13.35a8.45 8.45 0 0 0 11.89-.92c4.99-6.34-1.37-14.02-8.58-12.43ZM1651.94 426.33c-5.94 1.31-7.71 9.26-3.31 13.35a8.45 8.45 0 0 0 11.89-.92c4.98-6.34-1.38-14.02-8.58-12.43ZM1250.32 381.32a26.27 26.27 0 0 1 .79-10.65c5.35-18.31 25.87-23.64 40.44-12.53a27.23 27.23 0 0 1 8.93 11.53c1.85 4.75 2 10.37-.08 14.47s-6.73 6.23-10.84 4.42a15.84 15.84 0 0 1-4.78-3.34c-1.38-1.43-2.78-2.93-4.86-3.19a6.22 6.22 0 0 0-2.67.32 7.37 7.37 0 0 0-5.15 5.65c-.47 2.28-.91 4.84-2.83 6.4a7.51 7.51 0 0 1-4.62 1.51c-8.68.19-13.31-6.75-14.33-14.59ZM1250.44 338.27c-6.14 4.45-4.77 14.88 3.36 15.8a8.58 8.58 0 0 0 7.29-14.31c-2.57-2.8-7.46-3.8-10.65-1.49ZM1272.22 332.2c-6.13 4.45-4.76 14.87 3.36 15.79a8.57 8.57 0 0 0 7.29-14.3c-2.59-2.81-7.49-3.81-10.65-1.49ZM1294.16 341.26c-5.38 2.86-4.94 11 .4 13.75a8.44 8.44 0 0 0 11.2-4.09c3.09-7.44-5.1-13.13-11.6-9.66ZM1237.05 357.21c-5.37 2.87-4.93 11 .41 13.75a8.44 8.44 0 0 0 11.2-4.09c3.09-7.44-5.1-13.13-11.61-9.66ZM1408.86 563.58a26.41 26.41 0 0 1 6.19-8.7c14.07-12.87 34.38-6.8 41.08 10.25a27.2 27.2 0 0 1 1.66 14.49c-.88 5-3.63 9.93-7.57 12.33s-9 1.85-11.55-1.84a16 16 0 0 1-2.37-5.32c-.43-1.94-.85-4-2.5-5.25a6.15 6.15 0 0 0-2.44-1.11 7.36 7.36 0 0 0-7.33 2.16c-1.59 1.71-3.3 3.67-5.74 4a7.48 7.48 0 0 1-4.74-1.1c-7.52-4.33-7.88-12.67-4.69-19.91ZM1431.27 526.84c-7.55.62-11.78 10.25-5.31 15.25a8.58 8.58 0 0 0 13.65-8.46c-.75-3.73-4.39-7.12-8.34-6.79ZM1453.02 532.91c-7.55.63-11.78 10.26-5.31 15.25a8.57 8.57 0 0 0 13.65-8.45c-.74-3.73-4.41-7.12-8.34-6.8ZM1467.11 552.04c-6.08-.34-9.91 6.84-6.78 12a8.44 8.44 0 0 0 11.7 2.31c6.5-4.78 2.44-13.9-4.92-14.31ZM1410.01 536.09c-6.08-.33-9.92 6.85-6.78 12a8.44 8.44 0 0 0 11.7 2.31c6.5-4.79 2.44-13.9-4.92-14.31ZM2177.67 400.44a26.27 26.27 0 0 1 3.63-10c10.08-16.19 31.28-15.8 42.32-1.18a27.29 27.29 0 0 1 5.5 13.51c.5 5.07-.83 10.53-4 13.91s-8.16 4.19-11.63 1.34a15.75 15.75 0 0 1-3.71-4.5c-.94-1.75-1.88-3.57-3.83-4.38a6.13 6.13 0 0 0-2.65-.41 7.36 7.36 0 0 0-6.47 4.05c-1.07 2.08-2.19 4.42-4.45 5.4a7.5 7.5 0 0 1-4.86.22c-8.38-2.2-10.97-10.14-9.85-17.96ZM2189.37 359.04c-7.11 2.64-8.59 13-1 16.12a8.57 8.57 0 0 0 10.85-11.85c-1.71-3.38-6.16-5.67-9.85-4.27ZM2211.96 359.04c-7.11 2.64-8.59 13-1 16.12a8.57 8.57 0 0 0 10.86-11.82c-1.72-3.41-6.17-5.7-9.86-4.3ZM2230.67 373.65c-5.94 1.32-7.71 9.26-3.31 13.35a8.44 8.44 0 0 0 11.86-.96c5-6.29-1.35-14-8.55-12.39ZM2171.38 373.65c-5.94 1.32-7.71 9.26-3.31 13.35a8.44 8.44 0 0 0 11.89-.92c4.98-6.33-1.38-14.04-8.58-12.43ZM1857.79 364.19a26.32 26.32 0 0 1 7.19-7.9c15.49-11.12 34.94-2.67 39.56 15.06a27.15 27.15 0 0 1-.07 14.58c-1.47 4.88-4.78 9.42-9 11.34s-9.14.77-11.26-3.2a15.89 15.89 0 0 1-1.71-5.57c-.2-2-.38-4-1.86-5.51a6.23 6.23 0 0 0-2.3-1.39 7.37 7.37 0 0 0-7.53 1.27c-1.78 1.51-3.71 3.26-6.17 3.3a7.46 7.46 0 0 1-4.58-1.66c-6.93-5.2-6.29-13.47-2.27-20.32ZM1884.41 330.36c-7.57-.27-12.91 8.78-7.08 14.52a8.57 8.57 0 0 0 14.55-6.78c-.29-3.79-3.53-7.59-7.47-7.74ZM1905.29 338.98c-7.57-.27-12.92 8.78-7.09 14.52a8.58 8.58 0 0 0 14.56-6.78c-.29-3.79-3.54-7.59-7.47-7.74ZM1917 359.66c-6-1.06-10.66 5.61-8.15 11.08a8.44 8.44 0 0 0 11.34 3.68c7.03-3.95 4.03-13.49-3.19-14.76ZM1862.22 337.04c-6-1.05-10.66 5.61-8.15 11.08a8.44 8.44 0 0 0 11.34 3.68c7-3.96 4.05-13.49-3.19-14.76ZM2031.03 579.86a26.38 26.38 0 0 1-.49-10.67c3.12-18.81 22.85-26.57 38.65-17.28a27.09 27.09 0 0 1 10.25 10.37c2.4 4.49 3.26 10 1.65 14.37s-5.93 7-10.23 5.69a15.83 15.83 0 0 1-5.14-2.74c-1.54-1.26-3.11-2.57-5.21-2.58a6.19 6.19 0 0 0-2.61.63 7.36 7.36 0 0 0-4.43 6.23c-.2 2.32-.33 4.92-2 6.69a7.5 7.5 0 0 1-4.41 2.06c-8.64 1.23-14.07-5.11-16.03-12.77ZM2025.99 537.11c-5.56 5.16-2.94 15.34 5.23 15.28a8.57 8.57 0 0 0 5.52-15.08c-2.88-2.47-7.86-2.88-10.75-.2ZM2046.86 528.47c-5.56 5.15-3 15.34 5.23 15.28a8.57 8.57 0 0 0 5.52-15.08c-2.88-2.47-7.87-2.88-10.75-.2ZM2069.75 534.83c-5 3.49-3.58 11.5 2 13.6a8.44 8.44 0 0 0 10.63-5.4c2.23-7.76-6.59-12.42-12.63-8.2ZM2014.98 557.52c-5 3.49-3.58 11.5 2 13.6a8.44 8.44 0 0 0 10.63-5.4c2.22-7.76-6.59-12.42-12.63-8.2ZM1646.53 219.48a26.42 26.42 0 0 1 .13-10.67c4.2-18.61 24.35-25.21 39.58-15a27.14 27.14 0 0 1 9.63 10.94c2.14 4.63 2.68 10.23.82 14.45s-6.32 6.64-10.54 5.08a15.76 15.76 0 0 1-5-3c-1.46-1.35-3-2.76-5-2.88a6 6 0 0 0-2.64.48 7.35 7.35 0 0 0-4.79 5.95c-.32 2.31-.61 4.9-2.43 6.57a7.48 7.48 0 0 1-4.51 1.8c-8.68.69-13.74-5.96-15.25-13.72ZM1643.97 176.52c-5.84 4.82-3.82 15.14 4.34 15.55a8.57 8.57 0 0 0 6.38-14.73c-2.73-2.64-7.68-3.3-10.72-.82ZM1665.31 169.1c-5.85 4.82-3.83 15.14 4.34 15.55a8.57 8.57 0 0 0 6.38-14.73c-2.74-2.64-7.69-3.33-10.72-.82ZM1687.79 176.77c-5.18 3.2-4.24 11.28 1.26 13.7a8.44 8.44 0 0 0 10.93-4.78c2.62-7.65-5.91-12.78-12.19-8.92ZM1631.8 196.25c-5.19 3.2-4.25 11.28 1.26 13.7a8.44 8.44 0 0 0 10.92-4.78c2.62-7.62-5.91-12.79-12.18-8.92ZM1244.08 57.45a26.31 26.31 0 0 1 8-7c16.64-9.33 35 1.24 37.64 19.37a27.24 27.24 0 0 1-1.69 14.48c-2 4.69-5.81 8.83-10.19 10.27s-9.17-.25-10.83-4.43a15.85 15.85 0 0 1-1.09-5.73c0-2 .08-4-1.23-5.68a6.34 6.34 0 0 0-2.11-1.69 7.37 7.37 0 0 0-7.63.43c-1.93 1.3-4 2.82-6.5 2.59a7.47 7.47 0 0 1-4.36-2.16c-6.33-5.94-4.77-14.14-.01-20.45ZM1274.3 26.8c-7.5-1.12-13.82 7.28-8.66 13.63a8.8 8.8 0 0 0 9.38 2.72 8.79 8.79 0 0 0 5.84-7.83c.13-3.8-2.64-7.94-6.56-8.52ZM1294.08 37.69c-7.49-1.12-13.81 7.29-8.65 13.63a8.57 8.57 0 0 0 15.22-5.11c.13-3.8-2.67-7.94-6.57-8.52ZM1303.42 59.54c-5.84-1.72-11.21 4.39-9.33 10.1a8.43 8.43 0 0 0 10.86 4.92c7.41-3.14 5.55-12.94-1.53-15.02ZM1251.48 30.95c-5.84-1.71-11.21 4.39-9.33 10.09a8.43 8.43 0 0 0 10.86 4.92c7.41-3.13 5.55-12.92-1.53-15.01ZM1408.81 259.62a26.36 26.36 0 0 1 6.3-8.62c14.23-12.7 34.47-6.37 41 10.76a27.27 27.27 0 0 1 1.48 14.51c-.94 5-3.76 9.88-7.72 12.24s-9 1.73-11.54-2a15.73 15.73 0 0 1-2.29-5.36c-.41-1.94-.81-4-2.44-5.28a6.32 6.32 0 0 0-2.43-1.14 7.39 7.39 0 0 0-7.36 2.07c-1.6 1.69-3.34 3.63-5.79 3.93a7.45 7.45 0 0 1-4.72-1.16c-7.51-4.42-7.77-12.76-4.49-19.95ZM1431.68 223.15c-7.55.54-11.91 10.11-5.5 15.19a8.57 8.57 0 0 0 13.75-8.3c-.71-3.72-4.32-7.16-8.25-6.89ZM1453.36 229.51c-7.56.53-11.91 10.1-5.5 15.18a8.57 8.57 0 0 0 13.75-8.29c-.7-3.73-4.32-7.17-8.25-6.89ZM1467.22 248.82c-6.07-.41-10 6.71-6.93 11.88a8.44 8.44 0 0 0 11.67 2.45c6.54-4.67 2.6-13.84-4.74-14.33ZM1410.31 232.14c-6.08-.41-10 6.72-6.93 11.89a8.44 8.44 0 0 0 11.67 2.45c6.56-4.67 2.61-13.84-4.74-14.34ZM1542.69 36.48a26.38 26.38 0 0 1 6.31-8.62c14.23-12.7 34.46-6.37 40.94 10.76a27.08 27.08 0 0 1 1.48 14.51c-.94 5-3.75 9.88-7.72 12.24s-9 1.73-11.54-2a15.93 15.93 0 0 1-2.29-5.36c-.41-1.94-.8-3.95-2.44-5.28a6.32 6.32 0 0 0-2.43-1.14 7.37 7.37 0 0 0-7.35 2.07c-1.61 1.69-3.34 3.63-5.79 3.93a7.44 7.44 0 0 1-4.72-1.16c-7.47-4.39-7.72-12.76-4.45-19.95ZM1565.57.04c-7.56.54-11.91 10.11-5.5 15.19a8.78 8.78 0 0 0 9.74.62 8.8 8.8 0 0 0 4-8.91c-.69-3.76-4.31-7.2-8.24-6.9ZM1587.22 6.37c-7.55.53-11.91 10.1-5.5 15.18a8.8 8.8 0 0 0 9.75.62 8.77 8.77 0 0 0 4-8.91c-.67-3.73-4.25-7.17-8.25-6.89ZM1601.09 25.68c-6.08-.41-10 6.71-6.93 11.88a8.44 8.44 0 0 0 11.67 2.48c6.56-4.7 2.61-13.87-4.74-14.36ZM1544.22 9.04c-6.07-.41-10 6.72-6.93 11.89a8.44 8.44 0 0 0 11.67 2.45c6.53-4.71 2.59-13.88-4.74-14.34ZM2188.22 80.78a26.36 26.36 0 0 1-.84-10.64c2.52-18.91 22-27.29 38.07-18.52a27.14 27.14 0 0 1 10.58 10c2.55 4.41 3.59 9.94 2.11 14.31s-5.7 7.18-10 6a15.83 15.83 0 0 1-5.23-2.56c-1.58-1.21-3.18-2.48-5.29-2.42a6.25 6.25 0 0 0-2.59.72 7.39 7.39 0 0 0-4.23 6.36c-.11 2.33-.17 4.93-1.82 6.75a7.52 7.52 0 0 1-4.34 2.2c-8.55 1.56-14.18-4.61-16.42-12.2ZM2181.84 38.22c-5.38 5.33-2.45 15.42 5.73 15.1a8.81 8.81 0 0 0 7.8-5.88 8.8 8.8 0 0 0-2.77-9.36c-2.96-2.38-7.95-2.63-10.76.14ZM2202.43 28.91c-5.39 5.33-2.45 15.42 5.72 15.1a8.79 8.79 0 0 0 7.8-5.88 8.8 8.8 0 0 0-2.73-9.36c-3-2.38-8-2.63-10.79.14ZM2225.51 34.54c-4.87 3.64-3.21 11.61 2.49 13.53a8.45 8.45 0 0 0 10.45-5.75c1.93-7.82-7.04-12.2-12.94-7.78ZM2171.49 58.97c-4.87 3.64-3.21 11.61 2.49 13.53a8.45 8.45 0 0 0 10.45-5.74c1.93-7.83-7.04-12.21-12.94-7.79ZM2383.35 258.04a26.37 26.37 0 0 1 8.36-6.65c17.08-8.48 34.92 3 36.63 21.22a27.12 27.12 0 0 1-2.41 14.38c-2.24 4.58-6.24 8.54-10.69 9.76s-9.14-.72-10.59-5a15.76 15.76 0 0 1-.8-5.77c.12-2 .27-4-1-5.74a6.33 6.33 0 0 0-2-1.74 7.38 7.38 0 0 0-7.64 0c-2 1.21-4.19 2.62-6.63 2.27a7.58 7.58 0 0 1-4.25-2.37c-6.01-6.23-4.05-14.36 1.02-20.36ZM2415.05 228.88c-7.43-1.49-14.16 6.59-9.32 13.18a8.57 8.57 0 0 0 15.45-4.35c.32-3.78-2.26-8.06-6.13-8.83ZM2434.28 240.74c-7.43-1.49-14.16 6.59-9.33 13.18a8.57 8.57 0 0 0 15.46-4.34c.31-3.79-2.27-8.07-6.13-8.84ZM2442.52 263.04c-5.75-2-11.43 3.83-9.83 9.62a8.44 8.44 0 0 0 10.6 5.46c7.56-2.79 6.19-12.67-.77-15.08ZM2392.06 231.89c-5.75-2-11.42 3.83-9.83 9.62a8.45 8.45 0 0 0 10.61 5.46c7.56-2.77 6.18-12.65-.78-15.08ZM1860.15 71.21a26.45 26.45 0 0 1 3.63-10c10.08-16.19 31.28-15.8 42.32-1.18a27.11 27.11 0 0 1 5.5 13.5c.5 5.07-.83 10.54-4 13.92s-8.16 4.19-11.63 1.33a15.88 15.88 0 0 1-3.71-4.49c-.94-1.75-1.88-3.57-3.82-4.38a6.13 6.13 0 0 0-2.65-.41 7.35 7.35 0 0 0-6.48 4c-1.07 2.07-2.19 4.42-4.45 5.4a7.5 7.5 0 0 1-4.86.22c-8.38-2.15-10.97-10.08-9.85-17.91ZM1871.85 29.79c-7.1 2.64-8.59 13-1 16.12a8.8 8.8 0 0 0 9.53-2.14 8.8 8.8 0 0 0 1.34-9.68c-1.73-3.39-6.18-5.67-9.87-4.3ZM1894.44 29.79c-7.1 2.64-8.59 13-1 16.12a8.8 8.8 0 0 0 9.53-2.14 8.82 8.82 0 0 0 1.34-9.68c-1.73-3.39-6.18-5.67-9.87-4.3ZM1913.16 44.43c-6 1.31-7.71 9.26-3.32 13.35a8.45 8.45 0 0 0 11.89-.92c4.98-6.34-1.38-14.02-8.57-12.43ZM1853.87 44.43c-6 1.31-7.71 9.26-3.31 13.35a8.45 8.45 0 0 0 11.89-.92c4.97-6.34-1.39-14.02-8.58-12.43ZM2024.76 267.28a26.45 26.45 0 0 1 3.63-10c10.08-16.19 31.28-15.8 42.32-1.18a27.11 27.11 0 0 1 5.5 13.5c.5 5.08-.83 10.54-4 13.92s-8.15 4.19-11.63 1.33a15.88 15.88 0 0 1-3.71-4.49c-.93-1.75-1.88-3.57-3.82-4.38a6.13 6.13 0 0 0-2.65-.41 7.36 7.36 0 0 0-6.48 4c-1.07 2.07-2.19 4.42-4.45 5.4a7.5 7.5 0 0 1-4.86.22c-8.39-2.15-10.97-10.08-9.85-17.91ZM2036.46 225.86c-7.1 2.64-8.59 13.05-1 16.12a8.57 8.57 0 0 0 10.87-11.82c-1.73-3.39-6.17-5.67-9.87-4.3ZM2059.05 225.86c-7.1 2.64-8.59 13.05-1 16.12a8.57 8.57 0 0 0 10.87-11.82c-1.7-3.39-6.18-5.67-9.87-4.3ZM2077.77 240.5c-6 1.31-7.71 9.26-3.31 13.35a8.45 8.45 0 0 0 11.89-.92c4.97-6.33-1.39-14.02-8.58-12.43ZM2018.48 240.5c-6 1.31-7.71 9.26-3.31 13.35a8.45 8.45 0 0 0 11.89-.92c4.98-6.33-1.38-14.02-8.58-12.43ZM1594.82 708.04a26.51 26.51 0 0 1 2.27-10.43c7.88-17.37 29-19.77 41.8-6.72a27.16 27.16 0 0 1 7.23 12.66c1.16 5 .56 10.56-2.12 14.32s-7.53 5.23-11.35 2.85a16 16 0 0 1-4.26-4c-1.16-1.61-2.34-3.29-4.37-3.84a6.06 6.06 0 0 0-2.68-.06 7.35 7.35 0 0 0-5.89 4.86c-.79 2.2-1.59 4.68-3.7 5.94a7.46 7.46 0 0 1-4.79.85c-8.62-.99-12.23-8.51-12.14-16.43ZM1600.98 665.45c-6.69 3.55-6.8 14.06 1.11 16.11a8.57 8.57 0 0 0 9.23-13.14c-2.1-3.13-6.86-4.81-10.34-2.97ZM1623.38 662.49c-6.7 3.55-6.81 14.06 1.11 16.11a8.57 8.57 0 0 0 9.22-13.14c-2.14-3.13-6.85-4.81-10.33-2.97ZM1643.85 674.55c-5.72 2.08-6.43 10.19-1.53 13.67a8.43 8.43 0 0 0 11.66-2.48c4.11-6.93-3.2-13.7-10.13-11.19ZM1585.07 682.32c-5.72 2.08-6.43 10.19-1.53 13.67a8.45 8.45 0 0 0 11.67-2.47c4.1-6.93-3.21-13.72-10.14-11.2ZM1640.91 896.81a26.39 26.39 0 0 1 2.28-10.44c7.87-17.37 28.94-19.76 41.79-6.72a27.16 27.16 0 0 1 7.23 12.67c1.16 5 .56 10.56-2.11 14.31s-7.54 5.23-11.36 2.85a15.77 15.77 0 0 1-4.26-4c-1.16-1.62-2.33-3.3-4.37-3.85a6.21 6.21 0 0 0-2.68-.06 7.39 7.39 0 0 0-5.89 4.87c-.79 2.19-1.59 4.67-3.7 5.94a7.53 7.53 0 0 1-4.79.85c-8.62-.99-12.23-8.52-12.14-16.42ZM1647.07 854.21c-6.69 3.54-6.8 14.05 1.11 16.11a8.57 8.57 0 0 0 9.23-13.14c-2.19-3.14-6.85-4.82-10.34-2.97ZM1669.47 851.25c-6.7 3.54-6.81 14 1.11 16.11a8.57 8.57 0 0 0 9.22-13.14c-2.14-3.18-6.85-4.82-10.33-2.97ZM1689.94 863.3c-5.72 2.09-6.43 10.19-1.53 13.67a8.45 8.45 0 0 0 11.67-2.47c4.14-6.93-3.21-13.72-10.14-11.2ZM1631.16 871.04c-5.72 2.08-6.42 10.18-1.53 13.67a8.45 8.45 0 0 0 11.67-2.48c4.1-6.89-3.21-13.67-10.14-11.19ZM1251.1 683.65a26.39 26.39 0 0 1 .33-10.67c4.57-18.52 24.84-24.73 39.87-14.25a27.23 27.23 0 0 1 9.41 11.13c2 4.67 2.48 10.28.54 14.47s-6.45 6.51-10.64 4.87a15.94 15.94 0 0 1-4.92-3.12c-1.43-1.38-2.89-2.81-5-3a6.16 6.16 0 0 0-2.65.43 7.36 7.36 0 0 0-4.9 5.86c-.37 2.3-.71 4.88-2.56 6.52a7.54 7.54 0 0 1-4.55 1.71c-8.65.58-13.57-6.16-14.93-13.95ZM1249.37 640.64c-5.93 4.71-4.12 15.07 4 15.64a8.57 8.57 0 0 0 6.67-14.61c-2.64-2.69-7.58-3.48-10.67-1.03ZM1270.85 633.64c-5.94 4.71-4.12 15.06 4 15.63a8.57 8.57 0 0 0 6.67-14.6c-2.65-2.69-7.58-3.48-10.67-1.03ZM1293.22 641.75c-5.24 3.09-4.46 11.19 1 13.72a8.44 8.44 0 0 0 11-4.56c2.74-7.57-5.69-12.87-12-9.16ZM1236.82 660.13c-5.25 3.1-4.46 11.2 1 13.72a8.43 8.43 0 0 0 11-4.56c2.77-7.56-5.66-12.9-12-9.16ZM1408.59 862.04a26.32 26.32 0 0 1 7.1-8c15.37-11.29 34.91-3.07 39.73 14.61a27.11 27.11 0 0 1 .1 14.58c-1.42 4.89-4.68 9.48-8.85 11.44s-9.13.87-11.3-3.07a15.82 15.82 0 0 1-1.77-5.55c-.22-2-.42-4-1.93-5.49a6 6 0 0 0-2.31-1.36 7.34 7.34 0 0 0-7.51 1.36c-1.77 1.52-3.68 3.29-6.14 3.36a7.51 7.51 0 0 1-4.59-1.6c-7.01-5.14-6.47-13.47-2.53-20.28ZM1434.83 827.88c-7.58-.19-12.82 8.92-6.92 14.59a8.57 8.57 0 0 0 14.47-6.94c-.33-3.79-3.61-7.56-7.55-7.65ZM1455.8 836.26c-7.57-.19-12.81 8.92-6.92 14.59a8.57 8.57 0 0 0 14.48-6.94c-.34-3.79-3.62-7.55-7.56-7.65ZM1467.75 856.8c-6-1-10.6 5.73-8 11.17a8.45 8.45 0 0 0 11.38 3.55c6.95-4.03 3.89-13.48-3.38-14.72ZM1412.69 834.79c-6-1-10.59 5.74-8 11.17a8.44 8.44 0 0 0 11.38 3.56c6.95-4.03 3.9-13.48-3.38-14.73ZM2385.3 798.79a26.35 26.35 0 0 1-.19-10.68c3.64-18.72 23.59-25.92 39.11-16.19a27.1 27.1 0 0 1 10 10.65c2.28 4.56 3 10.14 1.25 14.42s-6.12 6.82-10.38 5.39a15.81 15.81 0 0 1-5.07-2.87c-1.5-1.31-3-2.67-5.14-2.73a6.12 6.12 0 0 0-2.62.56 7.35 7.35 0 0 0-4.61 6.09c-.25 2.32-.46 4.92-2.23 6.64a7.44 7.44 0 0 1-4.46 1.93c-8.66 1.04-13.91-5.5-15.66-13.21ZM2381.46 755.92c-5.7 5-3.37 15.25 4.8 15.42a8.58 8.58 0 0 0 5.94-14.92c-2.81-2.55-7.78-3.1-10.74-.5ZM2402.56 747.86c-5.7 5-3.37 15.25 4.8 15.42a8.57 8.57 0 0 0 5.94-14.91c-2.81-2.56-7.78-3.1-10.74-.51ZM2425.27 754.86c-5.09 3.35-3.9 11.4 1.67 13.66a8.44 8.44 0 0 0 10.77-5.11c2.4-7.69-6.29-12.6-12.44-8.55ZM2369.88 776.04c-5.09 3.35-3.9 11.4 1.67 13.65a8.44 8.44 0 0 0 10.78-5.1c2.39-7.72-6.3-12.63-12.45-8.55ZM2139.48 719.78a26.35 26.35 0 0 1-.19-10.68c3.65-18.72 23.59-25.92 39.11-16.2a27.13 27.13 0 0 1 10 10.66c2.28 4.56 3 10.14 1.25 14.41s-6.12 6.83-10.38 5.4a15.65 15.65 0 0 1-5.07-2.88c-1.5-1.3-3-2.66-5.14-2.73a6.27 6.27 0 0 0-2.62.56 7.38 7.38 0 0 0-4.61 6.1c-.25 2.32-.46 4.91-2.23 6.63a7.46 7.46 0 0 1-4.46 1.94c-8.66.99-13.92-5.5-15.66-13.21ZM2135.64 676.91c-5.7 5-3.37 15.25 4.8 15.41a8.57 8.57 0 0 0 5.94-14.91c-2.81-2.55-7.78-3.1-10.74-.5ZM2156.74 668.85c-5.7 5-3.37 15.25 4.8 15.42a8.58 8.58 0 0 0 5.94-14.92c-2.81-2.55-7.78-3.1-10.74-.5ZM2179.45 675.85c-5.09 3.35-3.9 11.4 1.67 13.65a8.42 8.42 0 0 0 10.77-5.1c2.4-7.69-6.29-12.6-12.44-8.55ZM2124.06 697.04c-5.09 3.34-3.9 11.39 1.67 13.65a8.45 8.45 0 0 0 10.78-5.1c2.39-7.73-6.29-12.65-12.45-8.55ZM2188.99 865.93a26.29 26.29 0 0 1 8.7-6.18c17.51-7.56 34.71 4.84 35.45 23.15a27.25 27.25 0 0 1-3.18 14.23c-2.48 4.45-6.69 8.19-11.2 9.17s-9.09-1.2-10.31-5.53a15.84 15.84 0 0 1-.49-5.81c.23-2 .49-4-.64-5.78a6.16 6.16 0 0 0-1.95-1.85 7.36 7.36 0 0 0-7.63-.36c-2.06 1.1-4.32 2.39-6.73 1.91a7.57 7.57 0 0 1-4.12-2.6c-5.67-6.56-3.29-14.55 2.1-20.35ZM2222.22 838.57c-7.33-1.89-14.49 5.82-10 12.66a8.56 8.56 0 0 0 15.66-3.51c.49-3.77-1.86-8.18-5.66-9.15ZM2240.76 851.44c-7.33-1.88-14.49 5.82-10 12.67a8.57 8.57 0 0 0 15.66-3.52c.51-3.76-1.84-8.17-5.66-9.15ZM2247.8 874.13c-5.63-2.3-11.61 3.22-10.33 9.09a8.45 8.45 0 0 0 10.3 6c7.7-2.35 6.85-12.29.03-15.09ZM2199.09 840.34c-5.64-2.3-11.62 3.22-10.33 9.09a8.43 8.43 0 0 0 10.29 6c7.7-2.39 6.86-12.29.04-15.09ZM1858.38 670.73a26.42 26.42 0 0 1 5.62-9.09c13.2-13.76 33.86-9 41.65 7.57a27.09 27.09 0 0 1 2.6 14.34c-.55 5.07-3 10.15-6.75 12.8s-8.84 2.43-11.65-1.08a15.82 15.82 0 0 1-2.71-5.17c-.55-1.91-1.1-3.88-2.84-5.07a6.09 6.09 0 0 0-2.51-1 7.34 7.34 0 0 0-7.17 2.63c-1.47 1.81-3.05 3.88-5.47 4.37a7.45 7.45 0 0 1-4.79-.79c-7.79-3.79-8.69-12.09-5.98-19.51ZM1878.36 632.6c-7.49 1.12-11.09 11-4.31 15.57a8.58 8.58 0 0 0 13.07-9.33c-.98-3.67-4.9-6.8-8.76-6.24ZM1900.46 637.26c-7.49 1.11-11.09 11-4.31 15.56a8.57 8.57 0 0 0 13.07-9.33c-1-3.67-4.86-6.82-8.76-6.23ZM1915.76 655.43c-6.09.07-9.45 7.48-6 12.39a8.45 8.45 0 0 0 11.83 1.54c6.18-5.17 1.54-14-5.83-13.93ZM1857.75 643.22c-6.09.06-9.46 7.47-6 12.39a8.44 8.44 0 0 0 11.82 1.54c6.19-5.17 1.55-14-5.82-13.93ZM1982.22 886.62a26.24 26.24 0 0 1-4.73-9.57c-4.69-18.49 10.28-33.51 28.47-31.33a27.14 27.14 0 0 1 13.55 5.39c4 3.15 7 7.9 7.28 12.5s-2.63 8.79-7.09 9.31a15.77 15.77 0 0 1-5.81-.44c-1.92-.54-3.88-1.11-5.81-.28a6.2 6.2 0 0 0-2.14 1.63 7.36 7.36 0 0 0-1.56 7.48c.75 2.21 1.67 4.64.81 7a7.46 7.46 0 0 1-3.21 3.65c-7.35 4.53-14.87.9-19.76-5.34ZM1960.48 849.49c-3 6.95 3.46 15.23 10.93 11.89a8.57 8.57 0 0 0-1-16c-3.63-1.13-8.35.49-9.93 4.11ZM1976.14 833.2c-3 7 3.45 15.23 10.92 11.9a8.58 8.58 0 0 0-1-16c-3.63-1.14-8.35.49-9.92 4.1ZM1999.66 829.85c-3.17 5.2 1.33 12 7.33 11.64a8.44 8.44 0 0 0 7.57-9.22c-1.11-7.97-11.06-8.71-14.9-2.42ZM1958.58 872.6c-3.17 5.19 1.33 12 7.33 11.64a8.44 8.44 0 0 0 7.57-9.22c-1.11-7.98-11.06-8.71-14.9-2.42Z" class="cls-5"/></g><g id="huesos-2" data-name="huesos"><g id="hueso-18" data-name="hueso"><path d="M1546.89 361.1c-4 3.49-5.38 9-3.78 14.65a9.76 9.76 0 0 0 11.2 7.44c7.86-.1 11.42-7.33 15.4-13.61 3-5.17 7.6-8.83 12.88-11.46 6.83-3.39 13.76-6.48 20.75-9.58 3.06-1.36 6.19-2.57 9.2-4 5.66-2.67 11.72-5.16 18.09-5 6.65.13 12.89 5.36 19.16 1.13 9.11-6.16 4.39-19.66-5.79-19.92" class="cls-5"/><path d="M1641.56 323.04a14.48 14.48 0 0 0 4.53-7.66c.84-8.28-4.92-13.62-12.25-14.88-8.27-.84-11 8.27-15 14.55-2.21 3.48-5.43 7.3-9.23 9l-7.21 3.2-20.61 9.15-13.26 5.89a24.72 24.72 0 0 1-5.52 2c-4.75.92-9 .06-13.6-1.28-3.94-1.17-7.93-1.81-11.49.76-9 6.48-3.62 20 6.86 19.68" class="cls-5"/></g><path d="m1962.56 188.07-3.24 1.8-4.21.67-4.38-.67-3.13-2.45-2.21-2.96-.92-3.22.22-3.75 1.62-3.8 3.75-3.43 5.21-2.68 4.11-2.71 2.95-3.15 2.84-4.24 2.41-4.81 13.34-31.78 2.12-6.17.99-6.25-.47-6.5-1.22-6.27-.54-4.51.54-5.31 3.07-4.99 3.57-3.14 5.58-.99 5.14 2.83 3.67 3.32 1.84 3.42.63 2.49 3.11-2.2 3.67-.97 4.1.54 4.64 2.57 3.09 4.93-.53 7.1-5.13 4.83-5.52 2.99-4.93 3.56-3.5 4.4-3 6.96-15.06 35.4-2.53 7.16.09 6.37 1.52 7.18 1.32 6.36-.39 5.35-3.63 4.59-4.41 1.94-5.06.49-4.09-.86-3.86-3.05-2.35-3.88-.83-2.51z" class="cls-5"/><g id="hueso-19" data-name="hueso"><path d="M2258.22 139.5c-5.29.32-9.75 3.84-11.93 9.29a9.75 9.75 0 0 0 4.33 12.73c6.29 4.72 13.52 1.17 20.51-1.38 5.52-2.27 11.41-2.36 17.2-1.21 7.48 1.47 14.85 3.26 22.27 5.06 3.26.8 6.48 1.75 9.73 2.47 6.11 1.34 12.43 3.07 17.4 7.05 5.19 4.15 6.94 12.1 14.49 12.58 11 .69 15.47-12.89 7.57-19.31" class="cls-5"/><path d="M2356.42 167.11a14.46 14.46 0 0 0 8.26-3.31c5.72-6 4.42-13.79-.62-19.26-6-5.72-13.76-.16-20.75 2.38-3.87 1.41-8.75 2.47-12.79 1.49l-7.67-1.86-21.91-5.33-14.1-3.43a24.54 24.54 0 0 1-5.62-1.75c-4.33-2.17-7.21-5.48-10-9.31-2.41-3.33-5.18-6.28-9.57-6.42-11.07-.34-15.1 13.68-6.58 19.78" class="cls-5"/></g><path d="m1644.31 320.49 3.59.89 3.54 2.39 2.75 3.48.62 3.92-.4 3.67-1.53 2.99-2.72 2.59-3.77 1.67-5.08-.04-5.64-1.6-4.86-.82-4.3.29-4.97 1.16-5.04 1.87-31.44 14.14-5.76 3.07-4.98 3.89-4.1 5.08-3.38 5.42-2.68 3.66-4.02 3.52-5.65 1.55-4.75-.14-4.76-3.08-1.83-5.58-.41-4.93.99-3.75 1.24-2.25-3.78-.52-3.35-1.79-2.63-3.19-1.63-5.05 1.09-5.71 5.24-4.83 7.04-.03 6.07 1.58 6.04.75 5.56-.82 6.94-3.05 35.16-15.61 6.74-3.51 4.28-4.72 3.79-6.29 3.37-5.55 3.93-3.64 5.79-.88 4.55 1.59 4.02 3.08 2.41 3.42.75 4.87-.93 4.44-1.11 2.4z" class="cls-5"/><g id="hueso-20" data-name="hueso"><path d="M1546.89 154.04c-4 3.48-5.38 9-3.78 14.64a9.74 9.74 0 0 0 11.2 7.44c7.86-.1 11.42-7.32 15.4-13.6a29.55 29.55 0 0 1 12.88-11.48c6.83-3.4 13.76-6.48 20.75-9.59 3.06-1.35 6.19-2.56 9.2-4 5.66-2.66 11.72-5.15 18.09-5 6.65.12 12.89 5.35 19.16 1.12 9.11-6.15 4.39-19.65-5.79-19.92" class="cls-5"/><path d="M1641.56 115.97a14.41 14.41 0 0 0 4.53-7.66c.84-8.27-4.92-13.62-12.25-14.88-8.27-.84-11 8.27-15 14.56-2.21 3.48-5.43 7.3-9.23 9l-7.21 3.21-20.61 9.14-13.26 5.89a24.74 24.74 0 0 1-5.52 2c-4.75.91-9 .05-13.6-1.29-3.94-1.16-7.93-1.81-11.49.76-9 6.49-3.62 20.06 6.86 19.69" class="cls-5"/></g><path d="m1644.31 113.45 3.59.89 3.54 2.38 2.75 3.48.62 3.93-.4 3.67-1.53 2.98-2.72 2.59-3.77 1.67-5.08-.04-5.64-1.6-4.86-.82-4.3.3-4.97 1.15-5.04 1.88-31.44 14.14-5.76 3.07-4.98 3.89-4.1 5.07-3.38 5.42-2.68 3.67-4.02 3.51-5.65 1.56-4.75-.15-4.76-3.08-1.83-5.58-.41-4.93.99-3.75 1.24-2.25-3.78-.51-3.35-1.79-2.63-3.19-1.63-5.05 1.09-5.71 5.24-4.83 7.04-.04 6.07 1.58 6.04.76 5.56-.83 6.94-3.04 35.16-15.62 6.74-3.51 4.28-4.72 3.79-6.28 3.37-5.55 3.93-3.65 5.79-.88 4.55 1.59 4.02 3.09 2.41 3.42.75 4.87-.93 4.44-1.11 2.4z" class="cls-5"/><g id="hueso-21" data-name="hueso"><path d="M1358.03 107.6c-4.72-2.41-10.35-1.64-15 2a9.76 9.76 0 0 0-2.72 13.17c3 7.25 11.06 7.86 18.37 9.21 5.91.84 11 3.75 15.44 7.67 5.7 5.07 11.15 10.35 16.63 15.67 2.41 2.33 4.7 4.79 7.13 7.06 4.58 4.25 9.16 8.94 11.42 14.89 2.37 6.22-.16 14 6.11 18.2 9.11 6.16 19.87-3.26 16.32-12.81" class="cls-5"/><path d="M1428.69 181.22a14.51 14.51 0 0 0 8.8 1.34c8-2.3 10.8-9.64 9.23-16.91-2.3-8-11.77-7.12-19.09-8.47-4-.75-8.8-2.31-11.78-5.21l-5.66-5.5-16.18-15.7-10.41-10.11a24.42 24.42 0 0 1-4-4.36c-2.62-4.07-3.43-8.38-3.88-13.09-.39-4.1-1.28-8-5-10.38-9.37-5.92-20 4.13-15.71 13.71" class="cls-5"/></g><path d="m1432.07 182.82.51 3.67-.89 4.17-2.21 3.85-3.4 2.04-3.56.99-3.34-.29-3.42-1.57-2.95-2.87-1.86-4.73-.62-5.83-1.05-4.81-1.88-3.88-2.93-4.18-3.62-3.98-24.85-23.89-5-4.2-5.46-3.17-6.24-1.9-6.29-1.12-4.4-1.12-4.76-2.42-3.55-4.66-1.64-4.46 1.08-5.56 4.49-3.78 4.42-2.22 3.85-.49 2.55.31-.93-3.69.41-3.78 1.98-3.63 4.07-3.4 5.71-1.11 6.44 3.05 2.65 6.52.81 6.23 1.55 5.88 2.84 4.85 5.41 5.3 27.61 26.8 5.77 4.94 5.98 2.2 7.24 1.18 6.41 1.05 4.85 2.29 2.98 5.04.22 4.81-1.36 4.89-2.28 3.51-4.24 2.51-4.46.8-2.64-.14z" class="cls-5"/><g id="hueso-22" data-name="hueso"><path d="M1355.11 412.68c-4.73-2.41-10.36-1.64-15 2a9.76 9.76 0 0 0-2.73 13.17c3 7.25 11.06 7.86 18.38 9.21 5.9.84 11 3.75 15.44 7.67 5.69 5.07 11.14 10.35 16.63 15.67 2.4 2.33 4.69 4.79 7.13 7.06 4.58 4.25 9.15 8.94 11.42 14.89 2.36 6.22-.16 14 6.1 18.2 9.11 6.16 19.88-3.26 16.32-12.81" class="cls-5"/><path d="M1425.77 486.3a14.48 14.48 0 0 0 8.79 1.34c8-2.3 10.8-9.64 9.24-16.91-2.31-8-11.78-7.12-19.1-8.47-4.05-.75-8.79-2.31-11.78-5.21l-5.66-5.5-16.18-15.7-10.41-10.11a24.8 24.8 0 0 1-4-4.36c-2.62-4.07-3.43-8.38-3.88-13.09-.39-4.1-1.28-8-5-10.38-9.37-5.92-20 4.13-15.71 13.71" class="cls-5"/></g><path d="m1429.14 487.9.52 3.67-.9 4.17-2.2 3.85-3.41 2.04-3.55 1-3.34-.3-3.42-1.57-2.96-2.87-1.86-4.73-.62-5.83-1.05-4.81-1.88-3.89-2.93-4.17-3.62-3.98-24.85-23.89-4.99-4.2-5.47-3.17-6.24-1.9-6.29-1.12-4.4-1.12-4.76-2.42-3.55-4.66-1.64-4.46 1.09-5.56 4.49-3.78 4.42-2.22 3.84-.49 2.56.31-.94-3.69.41-3.78 1.98-3.63 4.08-3.4 5.7-1.11 6.44 3.05 2.66 6.52.8 6.23 1.55 5.88 2.84 4.85 5.42 5.3 27.6 26.8 5.77 4.94 5.98 2.2 7.25 1.17 6.4 1.06 4.85 2.29 2.98 5.04.22 4.81-1.36 4.89-2.27 3.51-4.25 2.51-4.46.8-2.64-.14z" class="cls-5"/><g id="hueso-23" data-name="hueso"><path d="M1646 573.04c4.19-3.26 5.88-8.68 4.6-14.41a9.75 9.75 0 0 0-10.77-8.06c-7.85-.34-11.81 6.68-16.14 12.72a29.54 29.54 0 0 1-13.5 10.72c-7 3-14.1 5.7-21.25 8.41-3.13 1.18-6.33 2.21-9.42 3.46-5.79 2.34-12 4.49-18.33 4-6.64-.5-12.57-6.07-19.07-2.19-9.45 5.63-5.49 19.37 4.67 20.21" class="cls-5"/><path d="M1549.35 605.72a14.37 14.37 0 0 0-5 7.39c-1.31 8.21 4.14 13.87 11.39 15.54 8.21 1.31 11.45-7.64 15.78-13.69 2.39-3.35 5.82-7 9.71-8.45l7.39-2.8 21.08-8 13.57-5.13a24.6 24.6 0 0 1 5.63-1.72c4.79-.65 9 .45 13.5 2 3.87 1.38 7.82 2.25 11.52-.11 9.33-6 4.73-19.82-5.75-20" class="cls-5"/></g><path d="m1546.47 608.09-3.54-1.09-3.4-2.58-2.55-3.63-.39-3.95.6-3.64 1.69-2.9 2.87-2.43 3.85-1.46 5.08.33 5.54 1.91 4.8 1.09 4.32-.05 5.02-.88 5.14-1.59 32.18-12.35 5.92-2.75 5.2-3.6 4.37-4.84 3.68-5.22 2.88-3.51 4.21-3.28 5.73-1.24 4.73.41 4.58 3.34 1.51 5.68.14 4.94-1.2 3.69-1.36 2.18 3.74.72 3.25 1.98 2.44 3.33 1.35 5.13-1.41 5.64-5.5 4.53-7.04-.36-5.97-1.91-5.98-1.1-5.6.52-7.1 2.65-35.98 13.61-6.92 3.13-4.54 4.47-4.14 6.07-3.67 5.35-4.13 3.42-5.83.56-4.46-1.85-3.84-3.31-2.22-3.54-.46-4.91 1.17-4.38 1.24-2.33z" class="cls-5"/><g id="hueso-24" data-name="hueso"><path d="M1349.96 716.63c-5-1.9-10.47-.53-14.7 3.53a9.75 9.75 0 0 0-1.31 13.39c3.77 6.89 11.83 6.64 19.24 7.21 6 .21 11.37 2.56 16.17 6 6.2 4.43 12.18 9.1 18.2 13.81 2.64 2.07 5.18 4.27 7.84 6.26 5 3.75 10.05 7.93 12.93 13.6 3 5.94 1.33 13.9 8 17.45 9.71 5.16 19.41-5.35 14.86-14.47" class="cls-5"/><path d="M1428.04 782.33a14.48 14.48 0 0 0 8.89.4c7.7-3.14 9.71-10.73 7.38-17.8-3.14-7.7-12.46-5.83-19.88-6.39-4.11-.32-9-1.37-12.27-3.93l-6.21-4.87-17.73-13.89-11.43-8.95a24.78 24.78 0 0 1-4.39-3.92c-3-3.76-4.3-8-5.25-12.6-.82-4-2.12-7.86-6.06-9.79-10-4.89-19.41 6.22-14.16 15.29" class="cls-5"/></g><path d="m1431.56 783.56.9 3.6-.44 4.24-1.79 4.06-3.17 2.39-3.42 1.37-3.36.06-3.56-1.19-3.25-2.54-2.35-4.52-1.24-5.73-1.55-4.67-2.28-3.66-3.36-3.84-4.02-3.57-27.24-21.13-5.42-3.63-5.77-2.58-6.4-1.23-6.38-.44-4.49-.65-4.99-1.9-4.03-4.25-2.1-4.27.49-5.64 4.06-4.24 4.16-2.68 3.78-.89 2.56.04-1.32-3.58.01-3.79 1.59-3.82 3.69-3.81 5.55-1.72 6.73 2.36 3.33 6.2 1.46 6.1 2.17 5.69 3.34 4.52 5.95 4.69 30.29 23.72 6.26 4.3 6.18 1.56 7.33.39 6.48.37 5.06 1.76 3.5 4.7.73 4.76-.83 5.01-1.89 3.73-3.95 2.94-4.36 1.27-2.64.14z" class="cls-5"/><g id="hueso-25" data-name="hueso"><path d="M1759.53 474.73c-3-4.37-8.31-6.38-14.11-5.44a9.74 9.74 0 0 0-8.68 10.27c-.81 7.81 6 12.18 11.74 16.87 4.79 3.56 7.9 8.56 9.9 14.11 2.58 7.17 4.85 14.42 7.12 21.71 1 3.2 1.84 6.45 2.9 9.61 2 5.92 3.77 12.23 2.91 18.54-.89 6.59-6.8 12.18-3.32 18.9 5 9.77 19 6.63 20.45-3.46" class="cls-5"/><path d="M1786.44 573.16a14.42 14.42 0 0 0 7.09 5.38c8.12 1.79 14.1-3.31 16.19-10.45 1.79-8.12-6.94-11.88-12.72-16.56-3.21-2.59-6.63-6.23-7.87-10.2q-1.17-3.76-2.35-7.54-3.35-10.75-6.71-21.52l-4.32-13.85a25 25 0 0 1-1.38-5.72c-.36-4.82 1-9 2.84-13.35 1.61-3.79 2.71-7.67.57-11.51-5.4-9.67-19.5-5.9-20.34 4.54" class="cls-5"/></g><path d="m1788.64 576.18-1.3 3.47-2.77 3.24-3.78 2.33-3.97.16-3.59-.82-2.8-1.86-2.25-3.01-1.23-3.93.63-5.05 2.24-5.42 1.37-4.72.21-4.32-.58-5.06-1.28-5.23-10.42-32.86-2.39-6.07-3.28-5.4-4.57-4.65-5-3.99-3.33-3.08-3.02-4.4-.9-5.79.69-4.7 3.61-4.37 5.75-1.17 4.95.15 3.61 1.41 2.09 1.5.95-3.7 2.16-3.12 3.48-2.24 5.2-1.04 5.54 1.75 4.2 5.75-.78 7-2.27 5.85-1.44 5.91.18 5.62 2.22 7.25 11.45 36.72 2.71 7.1 4.2 4.79 5.81 4.49 5.12 3.99 3.17 4.33.21 5.85-2.11 4.33-3.53 3.65-3.67 2-4.93.17-4.3-1.43-2.26-1.38z" class="cls-5"/><g id="hueso-26" data-name="hueso"><path d="M1744.22 735.92c-3-4.37-8.32-6.39-14.11-5.45a9.76 9.76 0 0 0-8.69 10.27c-.8 7.82 6 12.19 11.75 16.87 4.78 3.56 7.89 8.56 9.89 14.11 2.59 7.18 4.85 14.42 7.13 21.71 1 3.2 1.83 6.46 2.89 9.61 2 5.93 3.77 12.23 2.92 18.54-.89 6.59-6.81 12.19-3.33 18.9 5.06 9.77 19 6.64 20.45-3.45" class="cls-5"/><path d="M1771.08 834.35a14.48 14.48 0 0 0 7.09 5.38c8.12 1.79 14.09-3.32 16.19-10.45 1.79-8.12-7-11.88-12.73-16.56-3.2-2.6-6.62-6.24-7.86-10.2-.78-2.52-1.57-5-2.35-7.54q-3.36-10.77-6.71-21.52l-4.32-13.86a25.06 25.06 0 0 1-1.39-5.71c-.36-4.83 1-9 2.85-13.36 1.61-3.79 2.71-7.67.57-11.5-5.4-9.68-19.5-5.91-20.35 4.54" class="cls-5"/></g><path d="m1773.28 837.36-1.3 3.47-2.78 3.24-3.77 2.33-3.97.16-3.6-.82-2.79-1.86-2.26-3-1.22-3.94.63-5.05 2.23-5.41 1.38-4.73.21-4.31-.59-5.07-1.27-5.22-10.42-32.87-2.39-6.06-3.29-5.41-4.57-4.65-4.99-3.98-3.33-3.09-3.03-4.4-.89-5.79.69-4.7 3.61-4.37 5.75-1.17 4.95.15 3.61 1.42 2.09 1.49.94-3.7 2.17-3.11 3.47-2.25 5.21-1.04 5.54 1.75 4.2 5.76-.78 7-2.27 5.85-1.45 5.9.18 5.62 2.23 7.25 11.45 36.73 2.71 7.09 4.2 4.8 5.8 4.49 5.13 3.98 3.16 4.33.21 5.85-2.1 4.34-3.54 3.64-3.67 2-4.92.17-4.3-1.42-2.26-1.39z" class="cls-5"/><g id="hueso-27" data-name="hueso"><path d="M1965.66 712.47c-4.92-1.95-10.46-.66-14.75 3.35a9.76 9.76 0 0 0-1.48 13.37c3.69 6.93 11.75 6.79 19.16 7.45a29.5 29.5 0 0 1 16.08 6.2c6.15 4.51 12.07 9.26 18 14 2.61 2.1 5.12 4.34 7.76 6.36 5 3.81 10 8 12.76 13.77 2.93 6 1.14 13.91 7.78 17.54 9.64 5.29 19.48-5.1 15-14.27" class="cls-5"/><path d="M2042.9 779.16a14.46 14.46 0 0 0 8.88.52c7.74-3 9.85-10.61 7.61-17.71-3-7.74-12.39-6-19.8-6.65-4.1-.36-9-1.47-12.21-4.08l-6.16-4.94-17.57-14.13-11.31-9.13a24 24 0 0 1-4.34-4c-3-3.8-4.2-8-5.09-12.67-.77-4-2-7.88-5.94-9.87-9.88-5-19.48 6-14.36 15.12" class="cls-5"/></g><path d="m2046.4 780.44.86 3.61-.5 4.24-1.84 4.03-3.2 2.35-3.44 1.32-3.36.02-3.55-1.24-3.21-2.58-2.29-4.54-1.16-5.74-1.5-4.69-2.23-3.7-3.31-3.88-3.98-3.62-26.97-21.47-5.37-3.71-5.74-2.65-6.39-1.31-6.36-.52-4.49-.71-4.96-1.96-3.98-4.3-2.04-4.29.56-5.64 4.12-4.18 4.19-2.63 3.78-.84 2.57.07-1.27-3.6.05-3.79 1.64-3.8 3.74-3.77 5.57-1.64 6.7 2.44 3.25 6.24 1.38 6.12 2.1 5.71 3.28 4.57 5.89 4.77 29.98 24.1 6.21 4.38 6.16 1.64 7.32.49 6.48.45 5.04 1.82 3.44 4.74.67 4.78-.9 4.99-1.93 3.71-4 2.89-4.36 1.21-2.65.11z" class="cls-5"/><g id="hueso-28" data-name="hueso"><path d="M2271.75 703.41c-2.59-4.62-7.7-7.11-13.56-6.7a9.76 9.76 0 0 0-9.57 9.45c-1.51 7.71 4.84 12.68 10.17 17.86 4.45 4 7.09 9.24 8.59 14.95 1.92 7.38 3.53 14.79 5.13 22.26.71 3.28 1.25 6.59 2 9.83 1.45 6.08 2.65 12.52 1.23 18.73-1.48 6.49-7.87 11.52-5 18.52 4.15 10.19 18.33 8.33 20.68-1.59" class="cls-5"/><path d="M2289.68 803.87a14.57 14.57 0 0 0 6.57 6c7.93 2.51 14.34-2 17.07-9 2.52-7.93-5.84-12.46-11.18-17.64-3-2.87-6-6.81-6.91-10.87-.55-2.57-1.11-5.15-1.66-7.72l-4.74-22-3.06-14.19a24.81 24.81 0 0 1-.86-5.82c.08-4.83 1.8-8.87 4-13 1.94-3.62 3.39-7.39 1.6-11.41-4.51-10.12-18.89-7.64-20.67 2.69" class="cls-5"/></g><path d="m2291.6 807.07-1.61 3.34-3.06 2.97-3.97 1.98-3.96-.2-3.51-1.14-2.61-2.1-1.98-3.2-.87-4.03 1.09-4.97 2.71-5.19 1.8-4.58.59-4.28-.12-5.1-.8-5.32-7.41-33.66-1.83-6.26-2.79-5.68-4.13-5.05-4.61-4.41-3.04-3.38-2.62-4.65-.37-5.85 1.11-4.62 3.99-4.03 5.83-.65 4.91.61 3.47 1.73 1.95 1.67 1.28-3.59 2.43-2.91 3.67-1.92 5.27-.57 5.37 2.24 3.66 6.11-1.41 6.9-2.79 5.63-1.97 5.75-.33 5.61 1.56 7.42 8.1 37.61 2.06 7.31 3.74 5.15 5.38 5 4.75 4.43 2.76 4.59-.32 5.85-2.49 4.13-3.84 3.31-3.84 1.66-4.92-.27-4.16-1.81-2.12-1.58z" class="cls-5"/><g id="hueso-29" data-name="hueso"><path d="M2372.07 474.39c-3.31-4.15-8.75-5.78-14.47-4.43a9.77 9.77 0 0 0-7.93 10.87c-.24 7.85 6.82 11.73 12.92 16 5 3.21 8.49 8 10.88 13.37 3.1 7 5.87 14 8.66 21.15 1.23 3.12 2.3 6.3 3.58 9.37 2.41 5.77 4.63 11.93 4.23 18.29-.41 6.64-5.91 12.64-2 19.09 5.74 9.38 19.44 5.25 20.15-4.91" class="cls-5"/><path d="M2405.95 570.64a14.53 14.53 0 0 0 7.45 4.86c8.23 1.2 13.82-4.32 15.41-11.58 1.2-8.23-7.78-11.36-13.88-15.61-3.38-2.36-7.06-5.75-8.58-9.61l-2.88-7.35q-4.11-10.5-8.23-21-2.65-6.75-5.3-13.51a24.54 24.54 0 0 1-1.79-5.6c-.71-4.79.34-9 1.88-13.53 1.34-3.89 2.16-7.84-.25-11.51-6.08-9.27-19.88-4.5-20 6" class="cls-5"/></g><path d="m2408.36 573.49-1.05 3.55-2.54 3.43-3.6 2.59-3.94.45-3.65-.56-2.92-1.66-2.46-2.83-1.51-3.84.27-5.08 1.84-5.56 1.03-4.82-.1-4.31-.94-5.01-1.65-5.12-12.74-32.04-2.81-5.88-3.67-5.15-4.89-4.32-5.27-3.61-3.54-2.84-3.33-4.17-1.31-5.71.35-4.74 3.29-4.62 5.65-1.58 4.95-.2 3.7 1.15 2.19 1.34.68-3.75 1.94-3.27 3.3-2.48 5.12-1.41 5.66 1.34 4.59 5.44-.28 7.04-1.84 6-1.02 6 .58 5.59 2.74 7.07 14.05 35.81 3.21 6.88 4.53 4.49 6.11 4.06 5.4 3.61 3.47 4.09.62 5.82-1.79 4.47-3.26 3.89-3.52 2.26-4.9.53-4.39-1.12-2.35-1.22z" class="cls-5"/><g id="hueso-30" data-name="hueso"><path d="M1967.44 409.52c-5-1.78-10.48-.29-14.62 3.87a9.76 9.76 0 0 0-1 13.41c3.94 6.8 12 6.37 19.41 6.77a29.63 29.63 0 0 1 16.3 5.62c6.3 4.3 12.38 8.83 18.5 13.4 2.69 2 5.28 4.15 8 6.08 5.09 3.63 10.23 7.7 13.24 13.31 3.15 5.86 1.64 13.86 8.4 17.26 9.83 4.94 19.29-5.79 14.54-14.8" class="cls-5"/><path d="M2046.99 473.44a14.51 14.51 0 0 0 8.89.2c7.63-3.32 9.47-11 7-18-3.31-7.62-12.59-5.54-20-5.94-4.11-.22-9-1.16-12.35-3.65l-6.33-4.72-18.06-13.49-11.62-8.69a24.75 24.75 0 0 1-4.48-3.81c-3.12-3.7-4.48-7.87-5.53-12.49-.92-4-2.31-7.8-6.29-9.65-10-4.66-19.26 6.66-13.81 15.62" class="cls-5"/></g><path d="m2050.54 474.59.98 3.57-.35 4.26-1.69 4.1-3.12 2.45-3.39 1.45-3.35.13-3.59-1.11-3.31-2.46-2.45-4.46-1.36-5.7-1.67-4.63-2.36-3.62-3.44-3.76-4.1-3.48-27.72-20.5-5.49-3.51-5.83-2.45-6.43-1.08-6.38-.3-4.51-.55-5.03-1.78-4.13-4.16-2.19-4.22.35-5.65 3.97-4.33 4.1-2.77 3.75-.98 2.57-.02-1.4-3.54-.08-3.8 1.5-3.85 3.6-3.9 5.52-1.84 6.78 2.2 3.47 6.13 1.6 6.07 2.29 5.63 3.44 4.45 6.06 4.56 30.82 23.02 6.36 4.15 6.21 1.42 7.34.23 6.48.22 5.11 1.65 3.6 4.61.84 4.75-.73 5.03-1.8 3.77-3.88 3.03-4.32 1.37-2.64.2z" class="cls-5"/><g id="hueso-31" data-name="hueso"><path d="M2255.11 264.92c3.86-3.63 5-9.19 3.22-14.78a9.76 9.76 0 0 0-11.48-7c-7.84.4-11.13 7.76-14.87 14.19a29.63 29.63 0 0 1-12.43 11.94c-6.7 3.65-13.51 7-20.37 10.36-3 1.48-6.09 2.8-9 4.33-5.55 2.88-11.51 5.6-17.87 5.72-6.66.13-13.09-4.86-19.19-.39-8.88 6.49-3.65 19.8 6.54 19.68" class="cls-5"/><path d="M2161.96 306.58a14.5 14.5 0 0 0-4.24 7.83c-.52 8.3 5.44 13.42 12.81 14.4 8.3.53 10.68-8.68 14.42-15.11 2.07-3.56 5.14-7.5 8.87-9.33l7.09-3.48 20.24-9.93 13-6.38a25.07 25.07 0 0 1 5.44-2.25c4.72-1.09 9-.4 13.64.77 4 1 8 1.51 11.45-1.2 8.73-6.82 2.85-20.18-7.6-19.41" class="cls-5"/></g><path d="m2159.32 309.21-3.63-.75-3.63-2.25-2.87-3.38-.77-3.89.26-3.68 1.41-3.05 2.63-2.69 3.69-1.81 5.09-.15 5.69 1.38 4.89.64 4.29-.46 4.92-1.35 4.96-2.06 30.89-15.33 5.63-3.28 4.83-4.08 3.9-5.23 3.17-5.54 2.54-3.77 3.89-3.66 5.58-1.77 4.75-.04 4.87 2.9 2.04 5.5.61 4.91-.85 3.79-1.15 2.3 3.79.37 3.42 1.66 2.74 3.09 1.83 4.98-.88 5.75-5.04 5.03-7.04.29-6.13-1.34-6.06-.53-5.53 1.04-6.81 3.31-34.55 16.94-6.59 3.76-4.1 4.88-3.55 6.43-3.15 5.67-3.79 3.8-5.75 1.09-4.61-1.41-4.14-2.93-2.54-3.33-.93-4.84.76-4.47 1.02-2.44z" class="cls-5"/><g id="hueso-32" data-name="hueso"><path d="M2006.06 92.64c.54-5.27-2.21-10.25-7.23-13.28a9.75 9.75 0 0 0-13.27 2.21c-5.67 5.43-3.34 13.14-2 20.45 1.35 5.82.48 11.64-1.59 17.17-2.67 7.14-5.63 14.13-8.62 21.16-1.31 3.08-2.78 6.11-4 9.2-2.32 5.8-5 11.76-9.78 16-4.95 4.45-13.07 4.88-14.77 12.25-2.46 10.72 10.2 17.37 17.83 10.61" class="cls-5"/><path d="M1962.86 185.09a14.5 14.5 0 0 0 1.92 8.69c5 6.62 12.89 6.6 19.11 2.52 6.62-5 2.39-13.56 1-20.87-.77-4-1-9 .61-12.86 1-2.42 2-4.85 3.08-7.27l8.82-20.75 5.67-13.35a24.71 24.71 0 0 1 2.65-5.26c2.85-3.91 6.58-6.22 10.81-8.34 3.68-1.84 7-4.09 7.88-8.4 2.14-10.87-11-17.12-18.45-9.7" class="cls-5"/></g><path d="m1962.59 188.81-3.24 1.81-4.21.67-4.38-.67-3.13-2.45-2.21-2.95-.93-3.22.22-3.76 1.62-3.79 3.75-3.44 5.21-2.68 4.1-2.72 2.95-3.15 2.84-4.24 2.41-4.81 13.32-31.79 2.11-6.17 1-6.25-.48-6.5-1.22-6.27-.55-4.51.54-5.31 3.07-4.99 3.57-3.14 5.58-.99 5.14 2.82 3.67 3.33 1.84 3.41.63 2.49 3.11-2.2 3.67-.98 4.1.54 4.64 2.57 3.09 4.92-.52 7.11-5.13 4.83-5.51 2.99-4.93 3.57-3.5 4.4-2.99 6.96-15.05 35.41-2.52 7.16.09 6.37 1.52 7.19 1.33 6.35-.39 5.35-3.63 4.59-4.41 1.95-5.05.49-4.09-.86-3.87-3.05-2.36-3.88-.82-2.51zM1786.01 273.02l-1.3 3.48-2.77 3.24-3.77 2.34-3.97.17-3.59-.82-2.8-1.85-2.26-3-1.24-3.94.63-5.04 2.22-5.42 1.37-4.74.2-4.31-.59-5.06-1.29-5.22-10.48-32.85-2.4-6.06-3.3-5.4-4.57-4.64-5-3.98-3.34-3.08-3.04-4.39-.9-5.79.68-4.7 3.6-4.38 5.75-1.18 4.95.15 3.61 1.4 2.1 1.49.93-3.69 2.16-3.13 3.47-2.25 5.21-1.05 5.54 1.74 4.21 5.75-.77 7-2.25 5.85-1.44 5.91.19 5.62 2.24 7.25 11.52 36.7 2.72 7.09 4.2 4.79 5.82 4.48 5.13 3.97 3.18 4.33.22 5.84-2.1 4.35-3.53 3.65-3.66 2-4.93.19-4.3-1.43-2.26-1.38z" class="cls-5"/><g id="hueso-33" data-name="hueso"><path d="M1757.16 172.2c-3-4.36-8.33-6.37-14.13-5.41a9.76 9.76 0 0 0-8.66 10.29c-.78 7.81 6 12.17 11.79 16.84 4.79 3.55 7.91 8.54 9.93 14.09 2.6 7.17 4.88 14.4 7.17 21.69 1 3.2 1.86 6.45 2.92 9.6 2 5.92 3.8 12.22 3 18.54-.87 6.59-6.77 12.2-3.28 18.9 5.09 9.76 19 6.59 20.45-3.5" class="cls-5"/><path d="M1784.31 270.56a14.48 14.48 0 0 0 7.1 5.37c8.12 1.77 14.08-3.35 16.16-10.49 1.77-8.13-7-11.87-12.76-16.53-3.21-2.59-6.65-6.22-7.89-10.18l-2.37-7.54q-3.37-10.74-6.76-21.5-2.17-6.93-4.36-13.84a25 25 0 0 1-1.39-5.72c-.38-4.82 1-9 2.81-13.36 1.6-3.79 2.69-7.68.54-11.51-5.43-9.66-19.52-5.86-20.33 4.59" class="cls-5"/></g><path d="m1786.51 273.57-1.29 3.48-2.77 3.24-3.77 2.34-3.97.17-3.59-.81-2.8-1.85-2.27-3-1.23-3.94.62-5.04 2.22-5.43 1.36-4.73.2-4.31-.59-5.06-1.29-5.22-10.5-32.84-2.4-6.07-3.3-5.39-4.58-4.64-5.01-3.97-3.34-3.08-3.03-4.39-.91-5.79.68-4.7 3.6-4.38 5.75-1.19 4.94.15 3.62 1.4 2.09 1.49.94-3.7 2.16-3.12 3.46-2.25 5.2-1.06 5.55 1.74 4.21 5.74-.76 7-2.25 5.86-1.44 5.91.2 5.62 2.24 7.24 11.54 36.7 2.73 7.09 4.2 4.78 5.82 4.48 5.14 3.97 3.18 4.32.22 5.85-2.1 4.34-3.52 3.66-3.67 2-4.92.19-4.31-1.42-2.26-1.38zM2360.14 166.78l2.31 2.9 1.34 4.05.05 4.43-1.9 3.49-2.56 2.66-3.03 1.44-3.74.38-4-.97-4-3.14-3.5-4.71-3.34-3.61-3.59-2.4-4.64-2.11-5.14-1.59-33.54-7.99-6.43-1.08-6.32.04-6.34 1.52-5.99 2.23-4.36 1.27-5.33.32-5.42-2.21-3.68-3.01-1.88-5.35 1.95-5.53 2.68-4.16 3.07-2.37 2.36-1.02-2.68-2.72-1.56-3.46-.13-4.13 1.78-5 4.35-3.85 7.1-.63 5.6 4.27 3.85 4.95 4.32 4.29 4.91 2.74 7.35 1.82 37.39 9.09 7.47 1.33 6.27-1.13 6.84-2.66 6.06-2.34 5.34-.49 5.12 2.83 2.63 4.04 1.31 4.91-.18 4.17-2.38 4.32-3.44 2.95-2.35 1.22zM2250.08 556.8l3.6.89 3.53 2.39 2.75 3.48.62 3.92-.4 3.67-1.53 2.99-2.72 2.59-3.77 1.67-5.09-.05-5.63-1.59-4.86-.82-4.3.29-4.97 1.16-5.04 1.87-31.44 14.14-5.76 3.07-4.98 3.89-4.1 5.08-3.38 5.41-2.68 3.67-4.02 3.51-5.65 1.56-4.75-.14-4.76-3.08-1.82-5.58-.42-4.93.99-3.75 1.24-2.25-3.78-.52-3.35-1.79-2.63-3.19-1.63-5.05 1.1-5.71 5.23-4.83 7.04-.03 6.08 1.58 6.03.75 5.56-.82 6.94-3.05 35.16-15.61 6.74-3.51 4.28-4.72 3.79-6.29 3.37-5.55 3.93-3.64 5.79-.89 4.55 1.6 4.02 3.08 2.41 3.42.75 4.87-.93 4.44-1.11 2.4z" class="cls-5"/><g id="hueso-34" data-name="hueso"><path d="M2152.66 597.41c-4 3.48-5.38 9-3.78 14.65a9.76 9.76 0 0 0 11.2 7.44c7.86-.1 11.42-7.33 15.41-13.61 3-5.17 7.59-8.83 12.87-11.46 6.83-3.39 13.76-6.48 20.75-9.58 3.06-1.36 6.2-2.57 9.21-4 5.65-2.66 11.71-5.15 18.08-5 6.65.13 12.89 5.35 19.16 1.12 9.12-6.15 4.39-19.65-5.79-19.91" class="cls-5"/><path d="M2247.33 559.33a14.48 14.48 0 0 0 4.53-7.66c.84-8.28-4.92-13.62-12.25-14.88-8.27-.84-11 8.27-15 14.55-2.21 3.48-5.43 7.3-9.23 9l-7.21 3.2-20.61 9.15-13.26 5.89a25.22 25.22 0 0 1-5.52 2c-4.75.92-9 .06-13.59-1.28-4-1.17-7.94-1.81-11.5.76-9 6.48-3.61 20.05 6.86 19.68" class="cls-5"/></g></g><g id="circulos-2" data-name="circulos"><path d="M1705.79 804.79c-7.07 2.63-8.54 13-1 16a8.52 8.52 0 0 0 10.8-11.75c-1.7-3.34-6.13-5.61-9.8-4.25ZM1285 538.13c-11.84 4.39-14.31 21.74-1.68 26.86a14.28 14.28 0 0 0 18.11-19.69c-2.86-5.65-10.27-9.45-16.43-7.17ZM1451.08 350.11c-11.84 4.39-14.32 21.74-1.69 26.86a14.28 14.28 0 0 0 18.11-19.7c-2.86-5.64-10.28-9.45-16.42-7.16ZM1599.59 478.14c-11.84 4.39-14.31 21.74-1.68 26.86a14.28 14.28 0 0 0 18.11-19.69c-2.86-5.65-10.27-9.45-16.43-7.17ZM1442.41 407.53c-7.07 2.62-8.54 13-1 16a8.52 8.52 0 0 0 10.81-11.72c-1.71-3.37-6.14-5.64-9.81-4.28ZM1548.49 511.42c-7.06 2.62-8.54 13-1 16a8.52 8.52 0 0 0 10.81-11.75c-1.71-3.34-6.08-5.63-9.81-4.25ZM1727.74 546.54c-7.07 2.62-8.55 13-1 16a8.53 8.53 0 0 0 10.81-11.76c-1.72-3.34-6.14-5.61-9.81-4.24ZM1524.31 447.26c-5 1.84-6 9.1-.7 11.25a6 6 0 0 0 7.58-8.25c-1.2-2.36-4.3-3.95-6.88-3ZM1778.84 334.04c-11.84 4.4-14.32 21.74-1.69 26.86a14.28 14.28 0 0 0 18.07-19.72c-2.82-5.65-10.23-9.45-16.38-7.14ZM1750.42 372.41c-7.07 2.63-8.55 13-1 16a8.52 8.52 0 0 0 10.8-11.72c-1.71-3.37-6.13-5.65-9.8-4.28ZM1713.07 344.84c-5 1.84-6 9.1-.71 11.24a6 6 0 0 0 7.59-8.24c-1.2-2.37-4.3-3.96-6.88-3ZM1803.06 495.55c-5 1.84-6 9.1-.71 11.25a6 6 0 0 0 7.58-8.25c-1.19-2.36-4.3-3.96-6.87-3ZM1278.53 439.72c-7.07 2.62-8.54 13-1 16a8.52 8.52 0 0 0 10.8-11.68c-1.7-3.41-6.11-5.68-9.8-4.32ZM1225.82 427.51c-5 1.84-6 9.1-.71 11.25a6 6 0 0 0 7.59-8.25c-1.2-2.36-4.3-3.96-6.88-3ZM1329.71 578.22c-5 1.84-6 9.1-.71 11.25a6 6 0 0 0 7.59-8.25c-1.2-2.36-4.31-3.96-6.88-3ZM1898.82 538.13c-11.84 4.39-14.31 21.74-1.68 26.86a14.28 14.28 0 0 0 18.08-19.69c-2.83-5.65-10.24-9.45-16.4-7.17ZM2064.89 350.11c-11.83 4.39-14.31 21.74-1.68 26.86a14.29 14.29 0 0 0 18.11-19.7c-2.86-5.64-10.27-9.45-16.43-7.16ZM2262.43 452.53c-11.84 4.4-14.31 21.74-1.69 26.86a14.28 14.28 0 0 0 18.12-19.69c-2.86-5.66-10.27-9.45-16.43-7.17ZM2056.22 407.53c-7.07 2.62-8.54 13-1 16a8.52 8.52 0 0 0 10.81-11.75c-1.7-3.34-6.13-5.61-9.81-4.25ZM2211.33 485.81c-7.07 2.62-8.54 13-1 16a8.52 8.52 0 0 0 10.81-11.75c-1.71-3.34-6.14-5.61-9.81-4.25ZM2341.55 546.54c-7.06 2.62-8.54 13-1 16a8.53 8.53 0 0 0 10.81-11.76c-1.71-3.34-6.14-5.61-9.81-4.24ZM2158.62 473.6c-5 1.84-6 9.1-.71 11.25a6 6 0 0 0 7.59-8.25c-1.2-2.36-4.28-3.96-6.88-3ZM2392.65 334.04c-11.83 4.4-14.31 21.74-1.68 26.86a14.28 14.28 0 0 0 18.11-19.69c-2.86-5.68-10.27-9.48-16.43-7.17ZM2364.22 372.41c-7.06 2.63-8.54 13-1 16a8.52 8.52 0 0 0 10.81-11.75c-1.7-3.34-6.12-5.62-9.81-4.25ZM2326.89 344.84c-5 1.84-6 9.1-.71 11.24a6 6 0 0 0 7.59-8.24c-1.2-2.37-4.3-3.96-6.88-3ZM2416.87 495.55c-5 1.84-6 9.1-.7 11.25a6 6 0 0 0 7.58-8.25c-1.19-2.36-4.3-3.96-6.88-3ZM1892.35 439.72c-7.07 2.62-8.54 13-1 16a8.52 8.52 0 0 0 10.8-11.68c-1.7-3.41-6.13-5.68-9.8-4.32ZM1839.64 427.51c-5 1.84-6 9.1-.71 11.25a6 6 0 0 0 7.59-8.25c-1.2-2.36-4.3-3.96-6.88-3ZM1943.53 578.22c-5 1.84-6 9.1-.71 11.25a6 6 0 0 0 7.58-8.25c-1.18-2.36-4.3-3.96-6.87-3ZM1285 234.52c-11.84 4.39-14.31 21.73-1.68 26.85a14.28 14.28 0 0 0 18.11-19.69c-2.86-5.64-10.27-9.45-16.43-7.16ZM1451.08 46.49c-11.84 4.4-14.32 21.74-1.69 26.86a14.67 14.67 0 0 0 15.89-3.57 14.66 14.66 0 0 0 2.22-16.12c-2.86-5.62-10.28-9.45-16.42-7.17ZM1582.77 236.71c-11.84 4.39-14.32 21.74-1.69 26.86a14.28 14.28 0 0 0 18.14-19.69c-2.89-5.65-10.3-9.45-16.45-7.17ZM1442.41 103.91c-7.07 2.63-8.54 13-1 16a8.52 8.52 0 0 0 10.81-11.72c-1.71-3.37-6.14-5.64-9.81-4.28ZM1531.67 270.04c-7.07 2.62-8.55 13-1 16a8.52 8.52 0 0 0 10.81-11.75c-1.72-3.39-6.14-5.66-9.81-4.25ZM1727.74 242.92c-7.07 2.62-8.55 13-1 16a8.52 8.52 0 0 0 10.81-11.75c-1.72-3.34-6.14-5.61-9.81-4.25ZM1495.78 195.59c-4.95 1.84-6 9.1-.7 11.25a6 6 0 0 0 7.58-8.25c-1.2-2.36-4.3-3.96-6.88-3ZM1653.81 9.04c-5 1.84-6 9.1-.71 11.25a6.13 6.13 0 0 0 6.65-1.5 6.13 6.13 0 0 0 .94-6.75c-1.2-2.37-4.3-4-6.88-3ZM1778.84 30.4c-11.84 4.39-14.32 21.73-1.69 26.86a14.67 14.67 0 0 0 15.89-3.57 14.68 14.68 0 0 0 2.18-16.13c-2.82-5.64-10.23-9.45-16.38-7.16ZM1750.42 68.8c-7.07 2.62-8.55 13-1 16a8.53 8.53 0 0 0 10.8-11.76c-1.71-3.34-6.13-5.61-9.8-4.24ZM1713.07 41.22c-5 1.84-6 9.1-.71 11.25a6 6 0 0 0 7.59-8.25c-1.2-2.36-4.3-3.95-6.88-3ZM1803.06 191.93c-5 1.84-6 9.1-.71 11.25a6 6 0 0 0 7.58-8.25c-1.19-2.36-4.3-3.95-6.87-3ZM1278.53 136.1c-7.07 2.63-8.54 13-1 16a8.53 8.53 0 0 0 10.81-11.76c-1.71-3.3-6.12-5.6-9.81-4.24ZM1225.82 123.89c-5 1.84-6 9.1-.71 11.25a6 6 0 0 0 7.59-8.25c-1.2-2.36-4.3-3.95-6.88-3ZM1329.71 274.6c-5 1.84-6 9.11-.71 11.25a6 6 0 0 0 7.59-8.25c-1.2-2.36-4.31-3.95-6.88-3ZM1898.82 234.52c-11.84 4.39-14.31 21.73-1.68 26.85a14.28 14.28 0 0 0 18.08-19.69c-2.83-5.64-10.24-9.45-16.4-7.16ZM2064.89 46.49c-11.83 4.4-14.31 21.74-1.68 26.86a14.65 14.65 0 0 0 15.88-3.57 14.65 14.65 0 0 0 2.23-16.12c-2.86-5.62-10.27-9.45-16.43-7.17ZM2213.41 174.52c-11.84 4.4-14.31 21.74-1.68 26.86a14.28 14.28 0 0 0 18.11-19.69c-2.86-5.65-10.27-9.45-16.43-7.17ZM2109.64 130.98c-7.07 2.63-8.55 13-1 16a8.52 8.52 0 0 0 10.81-11.75c-1.72-3.34-6.14-5.61-9.81-4.25ZM2162.31 207.8c-7.06 2.62-8.54 13-1 16a8.52 8.52 0 0 0 10.81-11.76c-1.71-3.33-6.13-5.6-9.81-4.24ZM2341.55 242.92c-7.06 2.62-8.54 13-1 16a8.52 8.52 0 0 0 10.81-11.75c-1.71-3.34-6.14-5.61-9.81-4.25ZM2109.6 195.59c-5 1.84-6 9.1-.71 11.25a6 6 0 0 0 7.59-8.25c-1.2-2.36-4.26-3.96-6.88-3ZM2392.65 30.4c-11.83 4.39-14.31 21.73-1.68 26.86a14.65 14.65 0 0 0 15.88-3.57 14.66 14.66 0 0 0 2.23-16.13c-2.86-5.64-10.27-9.45-16.43-7.16ZM2364.22 68.8c-7.06 2.62-8.54 13-1 16a8.53 8.53 0 0 0 10.82-11.76c-1.71-3.34-6.13-5.61-9.82-4.24ZM2326.89 41.22c-5 1.84-6 9.1-.71 11.25a6 6 0 0 0 7.59-8.25c-1.2-2.36-4.3-3.95-6.88-3ZM2416.87 191.93c-5 1.84-6 9.1-.7 11.25a6 6 0 0 0 7.58-8.25c-1.19-2.36-4.3-3.95-6.88-3ZM1892.35 136.1c-7.07 2.63-8.54 13-1 16a8.53 8.53 0 0 0 10.81-11.76c-1.71-3.3-6.14-5.6-9.81-4.24ZM1839.64 123.89c-5 1.84-6 9.1-.71 11.25a6 6 0 0 0 7.59-8.25c-1.2-2.36-4.3-3.95-6.88-3ZM1943.53 274.6c-5 1.84-6 9.11-.71 11.25a6 6 0 0 0 7.58-8.25c-1.18-2.36-4.3-3.95-6.87-3ZM1285 839.55c-11.84 4.4-14.31 21.74-1.68 26.86a14.28 14.28 0 0 0 18.11-19.69c-2.86-5.68-10.27-9.45-16.43-7.17ZM1451.08 651.53c-11.84 4.39-14.32 21.74-1.69 26.86a14.28 14.28 0 0 0 18.11-19.69c-2.86-5.66-10.28-9.45-16.42-7.17ZM1584.96 797.12c-11.84 4.39-14.31 21.74-1.68 26.86a14.28 14.28 0 0 0 18.11-19.69c-2.86-5.65-10.27-9.45-16.43-7.17ZM1442.41 708.95c-7.07 2.62-8.54 13-1 16a8.52 8.52 0 0 0 10.81-11.72c-1.71-3.37-6.14-5.64-9.81-4.28ZM1533.86 830.4c-7.07 2.62-8.54 13-1 16a8.52 8.52 0 0 0 10.81-11.75c-1.71-3.34-6.13-5.61-9.81-4.25ZM1524.31 739.17c-5 1.84-6 9.11-.7 11.25a6 6 0 0 0 7.58-8.25c-1.2-2.36-4.3-3.95-6.88-3ZM1778.84 635.44c-11.84 4.39-14.32 21.73-1.69 26.85a14.28 14.28 0 0 0 18.07-19.69c-2.82-5.65-10.23-9.45-16.38-7.16ZM1750.42 673.84c-7.07 2.62-8.55 13-1 16a8.53 8.53 0 0 0 10.8-11.73c-1.71-3.37-6.13-5.64-9.8-4.27ZM1713.07 646.26c-5 1.84-6 9.1-.71 11.25a6 6 0 0 0 7.59-8.25c-1.2-2.36-4.3-3.96-6.88-3ZM1803.06 776.49c-5 1.84-6 9.1-.71 11.24a6 6 0 0 0 7.58-8.24c-1.19-2.37-4.3-3.96-6.87-3ZM1278.53 741.14c-7.07 2.63-8.54 13-1 16a8.52 8.52 0 0 0 10.81-11.75c-1.71-3.35-6.12-5.61-9.81-4.25ZM1225.82 728.93c-5 1.84-6 9.1-.71 11.25a6 6 0 0 0 7.59-8.25c-1.2-2.36-4.3-3.95-6.88-3ZM1329.71 879.64c-5 1.84-6 9.1-.71 11.25a6 6 0 0 0 7.59-8.25c-1.2-2.36-4.31-3.95-6.88-3ZM1888.58 802.24c-11.84 4.4-14.31 21.74-1.69 26.86a14.28 14.28 0 0 0 18.11-19.69c-2.86-5.65-10.27-9.45-16.42-7.17ZM2064.89 651.53c-11.83 4.39-14.31 21.74-1.68 26.86a14.28 14.28 0 0 0 18.11-19.69c-2.86-5.66-10.27-9.45-16.43-7.17ZM2180.49 772.25c-11.84 4.39-14.31 21.73-1.69 26.86a14.29 14.29 0 0 0 18.12-19.7c-2.86-5.64-10.27-9.45-16.43-7.16ZM2056.22 708.95c-7.07 2.62-8.54 13-1 16a8.52 8.52 0 0 0 10.81-11.75c-1.7-3.34-6.13-5.61-9.81-4.25ZM2108.9 798.94c-7.06 2.62-8.54 13-1 16a8.52 8.52 0 0 0 10.81-11.75c-1.71-3.34-6.13-5.61-9.81-4.25ZM2341.55 847.96c-7.06 2.62-8.54 13-1 16a8.52 8.52 0 0 0 10.81-11.75c-1.71-3.35-6.14-5.62-9.81-4.25ZM2086.22 864.28c-5 1.84-6 9.1-.71 11.25a6 6 0 0 0 7.59-8.25c-1.23-2.36-4.33-3.96-6.88-3ZM2392.65 635.44c-11.83 4.39-14.31 21.73-1.68 26.85a14.28 14.28 0 0 0 18.11-19.69c-2.86-5.65-10.27-9.45-16.43-7.16ZM2364.22 673.84c-7.06 2.62-8.54 13-1 16a8.53 8.53 0 0 0 10.81-11.76c-1.7-3.34-6.12-5.61-9.81-4.24ZM2326.89 646.26c-5 1.84-6 9.1-.71 11.25a6 6 0 0 0 7.59-8.25c-1.2-2.36-4.3-3.96-6.88-3ZM2424.92 871.6c-5 1.83-6 9.1-.7 11.24a6 6 0 0 0 7.58-8.24c-1.2-2.37-4.3-3.96-6.88-3ZM1892.35 741.14c-7.07 2.63-8.54 13-1 16a8.52 8.52 0 0 0 10.81-11.75c-1.71-3.35-6.14-5.61-9.81-4.25ZM1783.34 881.61c-7.07 2.62-8.54 13-1 16a8.52 8.52 0 0 0 10.81-11.75c-1.71-3.34-6.14-5.61-9.81-4.25ZM1839.64 728.93c-5 1.84-6 9.1-.71 11.25a6 6 0 0 0 7.59-8.25c-1.2-2.36-4.3-3.95-6.88-3ZM1914.99 879.64c-5 1.84-6 9.1-.7 11.25a6 6 0 0 0 7.58-8.25c-1.2-2.36-4.3-3.95-6.88-3Z" class="cls-5"/></g></g></g></svg>